<svg xmlns="http://www.w3.org/2000/svg" version="1.1" xmlns:xlink="http://www.w3.org/1999/xlink" xmlns:svgjs="http://svgjs.com/svgjs" width="700" height="1500" preserveAspectRatio="none" viewBox="0 0 700 1500"><g mask="url(&quot;#SvgjsMask1675&quot;)" fill="none"><rect width="700" height="1500" x="0" y="0" fill="url(#SvgjsLinearGradient1676)"></rect><path d="M-67.83 940.39L-67.83 940.39" stroke="rgba(0, 0, 0, 0.19)" stroke-width="1.5"></path><path d="M-67.83 940.39L108.69 976.4" stroke="rgba(0, 0, 0, 0.19)" stroke-width="1.5"></path><path d="M-67.83 940.39L-78.04 1135.64" stroke="rgba(0, 0, 0, 0.19)" stroke-width="1.5"></path><path d="M-78.04 1135.64L-78.04 1135.64" stroke="rgba(0, 0, 0, 0.19)" stroke-width="1.5"></path><path d="M-78.04 1135.64L61.65 1128.27" stroke="rgba(0, 0, 0, 0.19)" stroke-width="1.5"></path><path d="M-78.04 1135.64L80.56 1275.16" stroke="rgba(0, 0, 0, 0.19)" stroke-width="1.5"></path><path d="M-78.04 1135.64L108.69 976.4" stroke="rgba(0, 0, 0, 0.19)" stroke-width="1.5"></path><path d="M-97.35 1565.91L-97.35 1565.91" stroke="rgba(0, 0, 0, 0.19)" stroke-width="1.5"></path><path d="M-97.35 1565.91L105.56 1602.29" stroke="rgba(0, 0, 0, 0.19)" stroke-width="1.5"></path><path d="M-97.35 1565.91L111.46 1461.17" stroke="rgba(0, 0, 0, 0.19)" stroke-width="1.5"></path><path d="M-97.35 1565.91L207.15 1417.99" stroke="rgba(0, 0, 0, 0.19)" stroke-width="1.5"></path><path d="M-97.35 1565.91L80.56 1275.16" stroke="rgba(0, 0, 0, 0.19)" stroke-width="1.5"></path><path d="M-97.35 1565.91L-78.04 1135.64" stroke="rgba(0, 0, 0, 0.19)" stroke-width="1.5"></path><path d="M108.69 976.4L108.69 976.4" stroke="rgba(0, 0, 0, 0.19)" stroke-width="1.5"></path><path d="M108.69 976.4L61.65 1128.27" stroke="rgba(0, 0, 0, 0.19)" stroke-width="1.5"></path><path d="M108.69 976.4L229.09 1127.4" stroke="rgba(0, 0, 0, 0.19)" stroke-width="1.5"></path><path d="M61.65 1128.27L61.65 1128.27" stroke="rgba(0, 0, 0, 0.19)" stroke-width="1.5"></path><path d="M61.65 1128.27L80.56 1275.16" stroke="rgba(0, 0, 0, 0.19)" stroke-width="1.5"></path><path d="M80.56 1275.16L80.56 1275.16" stroke="rgba(0, 0, 0, 0.19)" stroke-width="1.5"></path><path d="M80.56 1275.16L236.52 1276.74" stroke="rgba(0, 0, 0, 0.19)" stroke-width="1.5"></path><path d="M80.56 1275.16L111.46 1461.17" stroke="rgba(0, 0, 0, 0.19)" stroke-width="1.5"></path><path d="M111.46 1461.17L111.46 1461.17" stroke="rgba(0, 0, 0, 0.19)" stroke-width="1.5"></path><path d="M111.46 1461.17L207.15 1417.99" stroke="rgba(0, 0, 0, 0.19)" stroke-width="1.5"></path><path d="M111.46 1461.17L105.56 1602.29" stroke="rgba(0, 0, 0, 0.19)" stroke-width="1.5"></path><path d="M111.46 1461.17L236.52 1276.74" stroke="rgba(0, 0, 0, 0.19)" stroke-width="1.5"></path><path d="M105.56 1602.29L105.56 1602.29" stroke="rgba(0, 0, 0, 0.19)" stroke-width="1.5"></path><path d="M105.56 1602.29L207.15 1417.99" stroke="rgba(0, 0, 0, 0.19)" stroke-width="1.5"></path><path d="M105.56 1602.29L366.95 1597.12" stroke="rgba(0, 0, 0, 0.19)" stroke-width="1.5"></path><path d="M224.67 821.34L224.67 821.34" stroke="rgba(0, 0, 0, 0.19)" stroke-width="1.5"></path><path d="M224.67 821.34L373.88 940.7" stroke="rgba(0, 0, 0, 0.19)" stroke-width="1.5"></path><path d="M224.67 821.34L108.69 976.4" stroke="rgba(0, 0, 0, 0.19)" stroke-width="1.5"></path><path d="M229.09 1127.4L229.09 1127.4" stroke="rgba(0, 0, 0, 0.19)" stroke-width="1.5"></path><path d="M229.09 1127.4L236.52 1276.74" stroke="rgba(0, 0, 0, 0.19)" stroke-width="1.5"></path><path d="M229.09 1127.4L375.32 1095.52" stroke="rgba(0, 0, 0, 0.19)" stroke-width="1.5"></path><path d="M236.52 1276.74L236.52 1276.74" stroke="rgba(0, 0, 0, 0.19)" stroke-width="1.5"></path><path d="M236.52 1276.74L368.31 1257.01" stroke="rgba(0, 0, 0, 0.19)" stroke-width="1.5"></path><path d="M236.52 1276.74L207.15 1417.99" stroke="rgba(0, 0, 0, 0.19)" stroke-width="1.5"></path><path d="M236.52 1276.74L394.27 1387.87" stroke="rgba(0, 0, 0, 0.19)" stroke-width="1.5"></path><path d="M207.15 1417.99L207.15 1417.99" stroke="rgba(0, 0, 0, 0.19)" stroke-width="1.5"></path><path d="M207.15 1417.99L394.27 1387.87" stroke="rgba(0, 0, 0, 0.19)" stroke-width="1.5"></path><path d="M207.15 1417.99L80.56 1275.16" stroke="rgba(0, 0, 0, 0.19)" stroke-width="1.5"></path><path d="M384.32 402.01L384.32 402.01" stroke="rgba(0, 0, 0, 0.19)" stroke-width="1.5"></path><path d="M384.32 402.01L408.13 509.51" stroke="rgba(0, 0, 0, 0.19)" stroke-width="1.5"></path><path d="M384.32 402.01L541.79 402.87" stroke="rgba(0, 0, 0, 0.19)" stroke-width="1.5"></path><path d="M384.32 402.01L489.48 222.63" stroke="rgba(0, 0, 0, 0.19)" stroke-width="1.5"></path><path d="M384.32 402.01L556.17 561.91" stroke="rgba(0, 0, 0, 0.19)" stroke-width="1.5"></path><path d="M408.13 509.51L408.13 509.51" stroke="rgba(0, 0, 0, 0.19)" stroke-width="1.5"></path><path d="M408.13 509.51L556.17 561.91" stroke="rgba(0, 0, 0, 0.19)" stroke-width="1.5"></path><path d="M408.13 509.51L347.83 660.13" stroke="rgba(0, 0, 0, 0.19)" stroke-width="1.5"></path><path d="M347.83 660.13L347.83 660.13" stroke="rgba(0, 0, 0, 0.19)" stroke-width="1.5"></path><path d="M347.83 660.13L494.66 653.94" stroke="rgba(0, 0, 0, 0.19)" stroke-width="1.5"></path><path d="M347.83 660.13L224.67 821.34" stroke="rgba(0, 0, 0, 0.19)" stroke-width="1.5"></path><path d="M347.83 660.13L556.17 561.91" stroke="rgba(0, 0, 0, 0.19)" stroke-width="1.5"></path><path d="M347.83 660.13L506.51 829.63" stroke="rgba(0, 0, 0, 0.19)" stroke-width="1.5"></path><path d="M347.83 660.13L384.32 402.01" stroke="rgba(0, 0, 0, 0.19)" stroke-width="1.5"></path><path d="M373.88 940.7L373.88 940.7" stroke="rgba(0, 0, 0, 0.19)" stroke-width="1.5"></path><path d="M373.88 940.7L525.22 964.11" stroke="rgba(0, 0, 0, 0.19)" stroke-width="1.5"></path><path d="M373.88 940.7L375.32 1095.52" stroke="rgba(0, 0, 0, 0.19)" stroke-width="1.5"></path><path d="M375.32 1095.52L375.32 1095.52" stroke="rgba(0, 0, 0, 0.19)" stroke-width="1.5"></path><path d="M375.32 1095.52L507.02 1147.97" stroke="rgba(0, 0, 0, 0.19)" stroke-width="1.5"></path><path d="M368.31 1257.01L368.31 1257.01" stroke="rgba(0, 0, 0, 0.19)" stroke-width="1.5"></path><path d="M368.31 1257.01L394.27 1387.87" stroke="rgba(0, 0, 0, 0.19)" stroke-width="1.5"></path><path d="M368.31 1257.01L524.7 1280.9" stroke="rgba(0, 0, 0, 0.19)" stroke-width="1.5"></path><path d="M368.31 1257.01L375.32 1095.52" stroke="rgba(0, 0, 0, 0.19)" stroke-width="1.5"></path><path d="M394.27 1387.87L394.27 1387.87" stroke="rgba(0, 0, 0, 0.19)" stroke-width="1.5"></path><path d="M394.27 1387.87L528.79 1439.67" stroke="rgba(0, 0, 0, 0.19)" stroke-width="1.5"></path><path d="M394.27 1387.87L524.7 1280.9" stroke="rgba(0, 0, 0, 0.19)" stroke-width="1.5"></path><path d="M366.95 1597.12L366.95 1597.12" stroke="rgba(0, 0, 0, 0.19)" stroke-width="1.5"></path><path d="M366.95 1597.12L491.82 1598.99" stroke="rgba(0, 0, 0, 0.19)" stroke-width="1.5"></path><path d="M366.95 1597.12L394.27 1387.87" stroke="rgba(0, 0, 0, 0.19)" stroke-width="1.5"></path><path d="M366.95 1597.12L528.79 1439.67" stroke="rgba(0, 0, 0, 0.19)" stroke-width="1.5"></path><path d="M366.95 1597.12L207.15 1417.99" stroke="rgba(0, 0, 0, 0.19)" stroke-width="1.5"></path><path d="M507.72 -109.99L507.72 -109.99" stroke="rgba(0, 0, 0, 0.19)" stroke-width="1.5"></path><path d="M507.72 -109.99L649.91 -50.84" stroke="rgba(0, 0, 0, 0.19)" stroke-width="1.5"></path><path d="M507.72 -109.99L543.09 65.63" stroke="rgba(0, 0, 0, 0.19)" stroke-width="1.5"></path><path d="M543.09 65.63L543.09 65.63" stroke="rgba(0, 0, 0, 0.19)" stroke-width="1.5"></path><path d="M543.09 65.63L670.78 77.18" stroke="rgba(0, 0, 0, 0.19)" stroke-width="1.5"></path><path d="M543.09 65.63L649.91 -50.84" stroke="rgba(0, 0, 0, 0.19)" stroke-width="1.5"></path><path d="M543.09 65.63L489.48 222.63" stroke="rgba(0, 0, 0, 0.19)" stroke-width="1.5"></path><path d="M489.48 222.63L489.48 222.63" stroke="rgba(0, 0, 0, 0.19)" stroke-width="1.5"></path><path d="M489.48 222.63L541.79 402.87" stroke="rgba(0, 0, 0, 0.19)" stroke-width="1.5"></path><path d="M541.79 402.87L541.79 402.87" stroke="rgba(0, 0, 0, 0.19)" stroke-width="1.5"></path><path d="M541.79 402.87L556.17 561.91" stroke="rgba(0, 0, 0, 0.19)" stroke-width="1.5"></path><path d="M541.79 402.87L705.3 393.11" stroke="rgba(0, 0, 0, 0.19)" stroke-width="1.5"></path><path d="M541.79 402.87L408.13 509.51" stroke="rgba(0, 0, 0, 0.19)" stroke-width="1.5"></path><path d="M556.17 561.91L556.17 561.91" stroke="rgba(0, 0, 0, 0.19)" stroke-width="1.5"></path><path d="M556.17 561.91L494.66 653.94" stroke="rgba(0, 0, 0, 0.19)" stroke-width="1.5"></path><path d="M556.17 561.91L679.19 508.77" stroke="rgba(0, 0, 0, 0.19)" stroke-width="1.5"></path><path d="M556.17 561.91L652.42 708.36" stroke="rgba(0, 0, 0, 0.19)" stroke-width="1.5"></path><path d="M494.66 653.94L494.66 653.94" stroke="rgba(0, 0, 0, 0.19)" stroke-width="1.5"></path><path d="M494.66 653.94L652.42 708.36" stroke="rgba(0, 0, 0, 0.19)" stroke-width="1.5"></path><path d="M494.66 653.94L408.13 509.51" stroke="rgba(0, 0, 0, 0.19)" stroke-width="1.5"></path><path d="M506.51 829.63L506.51 829.63" stroke="rgba(0, 0, 0, 0.19)" stroke-width="1.5"></path><path d="M506.51 829.63L525.22 964.11" stroke="rgba(0, 0, 0, 0.19)" stroke-width="1.5"></path><path d="M506.51 829.63L373.88 940.7" stroke="rgba(0, 0, 0, 0.19)" stroke-width="1.5"></path><path d="M506.51 829.63L494.66 653.94" stroke="rgba(0, 0, 0, 0.19)" stroke-width="1.5"></path><path d="M525.22 964.11L525.22 964.11" stroke="rgba(0, 0, 0, 0.19)" stroke-width="1.5"></path><path d="M507.02 1147.97L507.02 1147.97" stroke="rgba(0, 0, 0, 0.19)" stroke-width="1.5"></path><path d="M507.02 1147.97L524.7 1280.9" stroke="rgba(0, 0, 0, 0.19)" stroke-width="1.5"></path><path d="M524.7 1280.9L524.7 1280.9" stroke="rgba(0, 0, 0, 0.19)" stroke-width="1.5"></path><path d="M528.79 1439.67L528.79 1439.67" stroke="rgba(0, 0, 0, 0.19)" stroke-width="1.5"></path><path d="M528.79 1439.67L524.7 1280.9" stroke="rgba(0, 0, 0, 0.19)" stroke-width="1.5"></path><path d="M528.79 1439.67L491.82 1598.99" stroke="rgba(0, 0, 0, 0.19)" stroke-width="1.5"></path><path d="M528.79 1439.67L708.46 1419.46" stroke="rgba(0, 0, 0, 0.19)" stroke-width="1.5"></path><path d="M528.79 1439.67L700.69 1594.52" stroke="rgba(0, 0, 0, 0.19)" stroke-width="1.5"></path><path d="M491.82 1598.99L491.82 1598.99" stroke="rgba(0, 0, 0, 0.19)" stroke-width="1.5"></path><path d="M491.82 1598.99L700.69 1594.52" stroke="rgba(0, 0, 0, 0.19)" stroke-width="1.5"></path><path d="M491.82 1598.99L394.27 1387.87" stroke="rgba(0, 0, 0, 0.19)" stroke-width="1.5"></path><path d="M491.82 1598.99L708.46 1419.46" stroke="rgba(0, 0, 0, 0.19)" stroke-width="1.5"></path><path d="M649.91 -50.84L649.91 -50.84" stroke="rgba(0, 0, 0, 0.19)" stroke-width="1.5"></path><path d="M649.91 -50.84L670.78 77.18" stroke="rgba(0, 0, 0, 0.19)" stroke-width="1.5"></path><path d="M670.78 77.18L670.78 77.18" stroke="rgba(0, 0, 0, 0.19)" stroke-width="1.5"></path><path d="M670.78 77.18L676.61 202.65" stroke="rgba(0, 0, 0, 0.19)" stroke-width="1.5"></path><path d="M676.61 202.65L676.61 202.65" stroke="rgba(0, 0, 0, 0.19)" stroke-width="1.5"></path><path d="M676.61 202.65L805.16 202.2" stroke="rgba(0, 0, 0, 0.19)" stroke-width="1.5"></path><path d="M676.61 202.65L489.48 222.63" stroke="rgba(0, 0, 0, 0.19)" stroke-width="1.5"></path><path d="M676.61 202.65L543.09 65.63" stroke="rgba(0, 0, 0, 0.19)" stroke-width="1.5"></path><path d="M676.61 202.65L705.3 393.11" stroke="rgba(0, 0, 0, 0.19)" stroke-width="1.5"></path><path d="M705.3 393.11L705.3 393.11" stroke="rgba(0, 0, 0, 0.19)" stroke-width="1.5"></path><path d="M705.3 393.11L679.19 508.77" stroke="rgba(0, 0, 0, 0.19)" stroke-width="1.5"></path><path d="M705.3 393.11L857.84 346.94" stroke="rgba(0, 0, 0, 0.19)" stroke-width="1.5"></path><path d="M705.3 393.11L862.26 496.1" stroke="rgba(0, 0, 0, 0.19)" stroke-width="1.5"></path><path d="M679.19 508.77L679.19 508.77" stroke="rgba(0, 0, 0, 0.19)" stroke-width="1.5"></path><path d="M679.19 508.77L541.79 402.87" stroke="rgba(0, 0, 0, 0.19)" stroke-width="1.5"></path><path d="M679.19 508.77L862.26 496.1" stroke="rgba(0, 0, 0, 0.19)" stroke-width="1.5"></path><path d="M679.19 508.77L800.04 669.24" stroke="rgba(0, 0, 0, 0.19)" stroke-width="1.5"></path><path d="M652.42 708.36L652.42 708.36" stroke="rgba(0, 0, 0, 0.19)" stroke-width="1.5"></path><path d="M652.42 708.36L706.38 816.27" stroke="rgba(0, 0, 0, 0.19)" stroke-width="1.5"></path><path d="M652.42 708.36L800.04 669.24" stroke="rgba(0, 0, 0, 0.19)" stroke-width="1.5"></path><path d="M706.38 816.27L706.38 816.27" stroke="rgba(0, 0, 0, 0.19)" stroke-width="1.5"></path><path d="M706.38 816.27L802.3 800.35" stroke="rgba(0, 0, 0, 0.19)" stroke-width="1.5"></path><path d="M706.38 816.27L710.83 944.42" stroke="rgba(0, 0, 0, 0.19)" stroke-width="1.5"></path><path d="M706.38 816.27L800.04 669.24" stroke="rgba(0, 0, 0, 0.19)" stroke-width="1.5"></path><path d="M706.38 816.27L506.51 829.63" stroke="rgba(0, 0, 0, 0.19)" stroke-width="1.5"></path><path d="M710.83 944.42L710.83 944.42" stroke="rgba(0, 0, 0, 0.19)" stroke-width="1.5"></path><path d="M690.17 1098.58L690.17 1098.58" stroke="rgba(0, 0, 0, 0.19)" stroke-width="1.5"></path><path d="M690.17 1098.58L711.23 1241.96" stroke="rgba(0, 0, 0, 0.19)" stroke-width="1.5"></path><path d="M690.17 1098.58L710.83 944.42" stroke="rgba(0, 0, 0, 0.19)" stroke-width="1.5"></path><path d="M690.17 1098.58L793.3 1241.5" stroke="rgba(0, 0, 0, 0.19)" stroke-width="1.5"></path><path d="M711.23 1241.96L711.23 1241.96" stroke="rgba(0, 0, 0, 0.19)" stroke-width="1.5"></path><path d="M711.23 1241.96L793.3 1241.5" stroke="rgba(0, 0, 0, 0.19)" stroke-width="1.5"></path><path d="M708.46 1419.46L708.46 1419.46" stroke="rgba(0, 0, 0, 0.19)" stroke-width="1.5"></path><path d="M708.46 1419.46L818.35 1412.41" stroke="rgba(0, 0, 0, 0.19)" stroke-width="1.5"></path><path d="M708.46 1419.46L700.69 1594.52" stroke="rgba(0, 0, 0, 0.19)" stroke-width="1.5"></path><path d="M708.46 1419.46L711.23 1241.96" stroke="rgba(0, 0, 0, 0.19)" stroke-width="1.5"></path><path d="M700.69 1594.52L700.69 1594.52" stroke="rgba(0, 0, 0, 0.19)" stroke-width="1.5"></path><path d="M700.69 1594.52L829.8 1559.27" stroke="rgba(0, 0, 0, 0.19)" stroke-width="1.5"></path><path d="M700.69 1594.52L818.35 1412.41" stroke="rgba(0, 0, 0, 0.19)" stroke-width="1.5"></path><path d="M700.69 1594.52L366.95 1597.12" stroke="rgba(0, 0, 0, 0.19)" stroke-width="1.5"></path><path d="M805.31 -45.67L805.31 -45.67" stroke="rgba(0, 0, 0, 0.19)" stroke-width="1.5"></path><path d="M805.31 -45.67L819.74 43.84" stroke="rgba(0, 0, 0, 0.19)" stroke-width="1.5"></path><path d="M805.31 -45.67L649.91 -50.84" stroke="rgba(0, 0, 0, 0.19)" stroke-width="1.5"></path><path d="M805.31 -45.67L670.78 77.18" stroke="rgba(0, 0, 0, 0.19)" stroke-width="1.5"></path><path d="M805.31 -45.67L805.16 202.2" stroke="rgba(0, 0, 0, 0.19)" stroke-width="1.5"></path><path d="M805.31 -45.67L676.61 202.65" stroke="rgba(0, 0, 0, 0.19)" stroke-width="1.5"></path><path d="M819.74 43.84L819.74 43.84" stroke="rgba(0, 0, 0, 0.19)" stroke-width="1.5"></path><path d="M819.74 43.84L670.78 77.18" stroke="rgba(0, 0, 0, 0.19)" stroke-width="1.5"></path><path d="M819.74 43.84L805.16 202.2" stroke="rgba(0, 0, 0, 0.19)" stroke-width="1.5"></path><path d="M819.74 43.84L649.91 -50.84" stroke="rgba(0, 0, 0, 0.19)" stroke-width="1.5"></path><path d="M805.16 202.2L805.16 202.2" stroke="rgba(0, 0, 0, 0.19)" stroke-width="1.5"></path><path d="M805.16 202.2L857.84 346.94" stroke="rgba(0, 0, 0, 0.19)" stroke-width="1.5"></path><path d="M805.16 202.2L670.78 77.18" stroke="rgba(0, 0, 0, 0.19)" stroke-width="1.5"></path><path d="M805.16 202.2L705.3 393.11" stroke="rgba(0, 0, 0, 0.19)" stroke-width="1.5"></path><path d="M857.84 346.94L857.84 346.94" stroke="rgba(0, 0, 0, 0.19)" stroke-width="1.5"></path><path d="M857.84 346.94L862.26 496.1" stroke="rgba(0, 0, 0, 0.19)" stroke-width="1.5"></path><path d="M857.84 346.94L676.61 202.65" stroke="rgba(0, 0, 0, 0.19)" stroke-width="1.5"></path><path d="M857.84 346.94L679.19 508.77" stroke="rgba(0, 0, 0, 0.19)" stroke-width="1.5"></path><path d="M862.26 496.1L862.26 496.1" stroke="rgba(0, 0, 0, 0.19)" stroke-width="1.5"></path><path d="M862.26 496.1L800.04 669.24" stroke="rgba(0, 0, 0, 0.19)" stroke-width="1.5"></path><path d="M800.04 669.24L800.04 669.24" stroke="rgba(0, 0, 0, 0.19)" stroke-width="1.5"></path><path d="M800.04 669.24L802.3 800.35" stroke="rgba(0, 0, 0, 0.19)" stroke-width="1.5"></path><path d="M802.3 800.35L802.3 800.35" stroke="rgba(0, 0, 0, 0.19)" stroke-width="1.5"></path><path d="M856.89 980.61L856.89 980.61" stroke="rgba(0, 0, 0, 0.19)" stroke-width="1.5"></path><path d="M856.89 980.61L710.83 944.42" stroke="rgba(0, 0, 0, 0.19)" stroke-width="1.5"></path><path d="M856.89 980.61L802.3 800.35" stroke="rgba(0, 0, 0, 0.19)" stroke-width="1.5"></path><path d="M856.89 980.61L690.17 1098.58" stroke="rgba(0, 0, 0, 0.19)" stroke-width="1.5"></path><path d="M856.89 980.61L706.38 816.27" stroke="rgba(0, 0, 0, 0.19)" stroke-width="1.5"></path><path d="M856.89 980.61L793.3 1241.5" stroke="rgba(0, 0, 0, 0.19)" stroke-width="1.5"></path><path d="M856.89 980.61L711.23 1241.96" stroke="rgba(0, 0, 0, 0.19)" stroke-width="1.5"></path><path d="M793.3 1241.5L793.3 1241.5" stroke="rgba(0, 0, 0, 0.19)" stroke-width="1.5"></path><path d="M793.3 1241.5L818.35 1412.41" stroke="rgba(0, 0, 0, 0.19)" stroke-width="1.5"></path><path d="M793.3 1241.5L708.46 1419.46" stroke="rgba(0, 0, 0, 0.19)" stroke-width="1.5"></path><path d="M818.35 1412.41L818.35 1412.41" stroke="rgba(0, 0, 0, 0.19)" stroke-width="1.5"></path><path d="M818.35 1412.41L829.8 1559.27" stroke="rgba(0, 0, 0, 0.19)" stroke-width="1.5"></path><path d="M818.35 1412.41L711.23 1241.96" stroke="rgba(0, 0, 0, 0.19)" stroke-width="1.5"></path><path d="M829.8 1559.27L829.8 1559.27" stroke="rgba(0, 0, 0, 0.19)" stroke-width="1.5"></path><path d="M829.8 1559.27L708.46 1419.46" stroke="rgba(0, 0, 0, 0.19)" stroke-width="1.5"></path><path d="M829.8 1559.27L793.3 1241.5" stroke="rgba(0, 0, 0, 0.19)" stroke-width="1.5"></path><circle r="5" cx="-67.83" cy="940.39" fill="rgba(0, 0, 0, 0.19)"></circle><circle r="5" cx="-78.04" cy="1135.64" fill="rgba(0, 0, 0, 0.19)"></circle><circle r="5" cx="-97.35" cy="1565.91" fill="rgba(0, 0, 0, 0.19)"></circle><circle r="5" cx="108.69" cy="976.4" fill="rgba(0, 0, 0, 0.19)"></circle><circle r="5" cx="61.65" cy="1128.27" fill="rgba(0, 0, 0, 0.19)"></circle><circle r="5" cx="80.56" cy="1275.16" fill="rgba(0, 0, 0, 0.19)"></circle><circle r="5" cx="111.46" cy="1461.17" fill="rgba(0, 0, 0, 0.19)"></circle><circle r="5" cx="105.56" cy="1602.29" fill="rgba(0, 0, 0, 0.19)"></circle><circle r="5" cx="224.67" cy="821.34" fill="rgba(0, 0, 0, 0.19)"></circle><circle r="5" cx="229.09" cy="1127.4" fill="rgba(0, 0, 0, 0.19)"></circle><circle r="5" cx="236.52" cy="1276.74" fill="rgba(0, 0, 0, 0.19)"></circle><circle r="5" cx="207.15" cy="1417.99" fill="rgba(0, 0, 0, 0.19)"></circle><circle r="5" cx="384.32" cy="402.01" fill="rgba(0, 0, 0, 0.19)"></circle><circle r="5" cx="408.13" cy="509.51" fill="rgba(0, 0, 0, 0.19)"></circle><circle r="5" cx="347.83" cy="660.13" fill="rgba(0, 0, 0, 0.19)"></circle><circle r="5" cx="373.88" cy="940.7" fill="rgba(0, 0, 0, 0.19)"></circle><circle r="5" cx="375.32" cy="1095.52" fill="rgba(0, 0, 0, 0.19)"></circle><circle r="5" cx="368.31" cy="1257.01" fill="rgba(0, 0, 0, 0.19)"></circle><circle r="5" cx="394.27" cy="1387.87" fill="rgba(0, 0, 0, 0.19)"></circle><circle r="5" cx="366.95" cy="1597.12" fill="rgba(0, 0, 0, 0.19)"></circle><circle r="5" cx="507.72" cy="-109.99" fill="rgba(0, 0, 0, 0.19)"></circle><circle r="5" cx="543.09" cy="65.63" fill="rgba(0, 0, 0, 0.19)"></circle><circle r="5" cx="489.48" cy="222.63" fill="rgba(0, 0, 0, 0.19)"></circle><circle r="5" cx="541.79" cy="402.87" fill="rgba(0, 0, 0, 0.19)"></circle><circle r="5" cx="556.17" cy="561.91" fill="rgba(0, 0, 0, 0.19)"></circle><circle r="5" cx="494.66" cy="653.94" fill="rgba(0, 0, 0, 0.19)"></circle><circle r="5" cx="506.51" cy="829.63" fill="rgba(0, 0, 0, 0.19)"></circle><circle r="5" cx="525.22" cy="964.11" fill="rgba(0, 0, 0, 0.19)"></circle><circle r="5" cx="507.02" cy="1147.97" fill="rgba(0, 0, 0, 0.19)"></circle><circle r="5" cx="524.7" cy="1280.9" fill="rgba(0, 0, 0, 0.19)"></circle><circle r="5" cx="528.79" cy="1439.67" fill="rgba(0, 0, 0, 0.19)"></circle><circle r="5" cx="491.82" cy="1598.99" fill="rgba(0, 0, 0, 0.19)"></circle><circle r="5" cx="649.91" cy="-50.84" fill="rgba(0, 0, 0, 0.19)"></circle><circle r="5" cx="670.78" cy="77.18" fill="rgba(0, 0, 0, 0.19)"></circle><circle r="5" cx="676.61" cy="202.65" fill="rgba(0, 0, 0, 0.19)"></circle><circle r="5" cx="705.3" cy="393.11" fill="rgba(0, 0, 0, 0.19)"></circle><circle r="5" cx="679.19" cy="508.77" fill="rgba(0, 0, 0, 0.19)"></circle><circle r="5" cx="652.42" cy="708.36" fill="rgba(0, 0, 0, 0.19)"></circle><circle r="5" cx="706.38" cy="816.27" fill="rgba(0, 0, 0, 0.19)"></circle><circle r="5" cx="710.83" cy="944.42" fill="rgba(0, 0, 0, 0.19)"></circle><circle r="5" cx="690.17" cy="1098.58" fill="rgba(0, 0, 0, 0.19)"></circle><circle r="5" cx="711.23" cy="1241.96" fill="rgba(0, 0, 0, 0.19)"></circle><circle r="5" cx="708.46" cy="1419.46" fill="rgba(0, 0, 0, 0.19)"></circle><circle r="5" cx="700.69" cy="1594.52" fill="rgba(0, 0, 0, 0.19)"></circle><circle r="5" cx="805.31" cy="-45.67" fill="rgba(0, 0, 0, 0.19)"></circle><circle r="5" cx="819.74" cy="43.84" fill="rgba(0, 0, 0, 0.19)"></circle><circle r="5" cx="805.16" cy="202.2" fill="rgba(0, 0, 0, 0.19)"></circle><circle r="5" cx="857.84" cy="346.94" fill="rgba(0, 0, 0, 0.19)"></circle><circle r="5" cx="862.26" cy="496.1" fill="rgba(0, 0, 0, 0.19)"></circle><circle r="5" cx="800.04" cy="669.24" fill="rgba(0, 0, 0, 0.19)"></circle><circle r="5" cx="802.3" cy="800.35" fill="rgba(0, 0, 0, 0.19)"></circle><circle r="5" cx="856.89" cy="980.61" fill="rgba(0, 0, 0, 0.19)"></circle><circle r="5" cx="793.3" cy="1241.5" fill="rgba(0, 0, 0, 0.19)"></circle><circle r="5" cx="818.35" cy="1412.41" fill="rgba(0, 0, 0, 0.19)"></circle><circle r="5" cx="829.8" cy="1559.27" fill="rgba(0, 0, 0, 0.19)"></circle><path d="M-54.71 1563.82L-54.71 1563.82" stroke="hsla(0, 0%, 3.6%, 0.18)" stroke-width="1.5"></path><path d="M-54.71 1563.82L50.24 1556.21" stroke="hsla(0, 0%, 3.6%, 0.18)" stroke-width="1.5"></path><path d="M-54.71 1563.82L-99.5 1422.69" stroke="hsla(0, 0%, 3.6%, 0.18)" stroke-width="1.5"></path><path d="M-54.71 1563.82L71.92 1433.03" stroke="hsla(0, 0%, 3.6%, 0.18)" stroke-width="1.5"></path><path d="M-54.71 1563.82L51.48 1300.01" stroke="hsla(0, 0%, 3.6%, 0.18)" stroke-width="1.5"></path><path d="M-54.71 1563.82L242.66 1597.46" stroke="hsla(0, 0%, 3.6%, 0.18)" stroke-width="1.5"></path><path d="M51.48 1300.01L51.48 1300.01" stroke="hsla(0, 0%, 3.6%, 0.18)" stroke-width="1.5"></path><path d="M51.48 1300.01L-43.67 1238.67" stroke="hsla(0, 0%, 3.6%, 0.18)" stroke-width="1.5"></path><path d="M51.48 1300.01L71.92 1433.03" stroke="hsla(0, 0%, 3.6%, 0.18)" stroke-width="1.5"></path><path d="M51.48 1300.01L209.09 1254.05" stroke="hsla(0, 0%, 3.6%, 0.18)" stroke-width="1.5"></path><path d="M51.48 1300.01L-99.5 1422.69" stroke="hsla(0, 0%, 3.6%, 0.18)" stroke-width="1.5"></path><path d="M50.24 1556.21L50.24 1556.21" stroke="hsla(0, 0%, 3.6%, 0.18)" stroke-width="1.5"></path><path d="M50.24 1556.21L71.92 1433.03" stroke="hsla(0, 0%, 3.6%, 0.18)" stroke-width="1.5"></path><path d="M50.24 1556.21L242.66 1597.46" stroke="hsla(0, 0%, 3.6%, 0.18)" stroke-width="1.5"></path><path d="M50.24 1556.21L-99.5 1422.69" stroke="hsla(0, 0%, 3.6%, 0.18)" stroke-width="1.5"></path><path d="M339.42 1146.52L339.42 1146.52" stroke="hsla(0, 0%, 3.6%, 0.18)" stroke-width="1.5"></path><path d="M339.42 1146.52L348.32 1256.24" stroke="hsla(0, 0%, 3.6%, 0.18)" stroke-width="1.5"></path><path d="M339.42 1146.52L498.63 1119.31" stroke="hsla(0, 0%, 3.6%, 0.18)" stroke-width="1.5"></path><path d="M535.94 406.26L535.94 406.26" stroke="hsla(0, 0%, 3.6%, 0.18)" stroke-width="1.5"></path><path d="M535.94 406.26L545.74 529.04" stroke="hsla(0, 0%, 3.6%, 0.18)" stroke-width="1.5"></path><path d="M535.94 406.26L655.77 542.24" stroke="hsla(0, 0%, 3.6%, 0.18)" stroke-width="1.5"></path><path d="M535.94 406.26L710.51 352.9" stroke="hsla(0, 0%, 3.6%, 0.18)" stroke-width="1.5"></path><path d="M535.94 406.26L532.79 640.05" stroke="hsla(0, 0%, 3.6%, 0.18)" stroke-width="1.5"></path><path d="M498.63 1119.31L498.63 1119.31" stroke="hsla(0, 0%, 3.6%, 0.18)" stroke-width="1.5"></path><path d="M498.63 1119.31L548.59 1241.58" stroke="hsla(0, 0%, 3.6%, 0.18)" stroke-width="1.5"></path><path d="M498.63 1119.31L394.87 993.43" stroke="hsla(0, 0%, 3.6%, 0.18)" stroke-width="1.5"></path><path d="M498.63 1119.31L690.81 1104.21" stroke="hsla(0, 0%, 3.6%, 0.18)" stroke-width="1.5"></path><path d="M498.63 1119.31L348.32 1256.24" stroke="hsla(0, 0%, 3.6%, 0.18)" stroke-width="1.5"></path><path d="M498.63 1119.31L673.15 1002.55" stroke="hsla(0, 0%, 3.6%, 0.18)" stroke-width="1.5"></path><path d="M548.59 1241.58L548.59 1241.58" stroke="hsla(0, 0%, 3.6%, 0.18)" stroke-width="1.5"></path><path d="M548.59 1241.58L684.45 1260.85" stroke="hsla(0, 0%, 3.6%, 0.18)" stroke-width="1.5"></path><path d="M548.59 1241.58L509.32 1396.22" stroke="hsla(0, 0%, 3.6%, 0.18)" stroke-width="1.5"></path><path d="M548.59 1241.58L690.81 1104.21" stroke="hsla(0, 0%, 3.6%, 0.18)" stroke-width="1.5"></path><path d="M710.51 352.9L710.51 352.9" stroke="hsla(0, 0%, 3.6%, 0.18)" stroke-width="1.5"></path><path d="M710.51 352.9L806.19 490.46" stroke="hsla(0, 0%, 3.6%, 0.18)" stroke-width="1.5"></path><path d="M710.51 352.9L862.29 238.78" stroke="hsla(0, 0%, 3.6%, 0.18)" stroke-width="1.5"></path><path d="M710.51 352.9L655.77 542.24" stroke="hsla(0, 0%, 3.6%, 0.18)" stroke-width="1.5"></path><path d="M-43.67 1238.67L-43.67 1238.67" stroke="hsla(0, 0%, 3.6%, 0.18)" stroke-width="1.5"></path><path d="M-43.67 1238.67L-99.5 1422.69" stroke="hsla(0, 0%, 3.6%, 0.18)" stroke-width="1.5"></path><path d="M-43.67 1238.67L71.92 1433.03" stroke="hsla(0, 0%, 3.6%, 0.18)" stroke-width="1.5"></path><path d="M-43.67 1238.67L209.09 1254.05" stroke="hsla(0, 0%, 3.6%, 0.18)" stroke-width="1.5"></path><path d="M-99.5 1422.69L-99.5 1422.69" stroke="hsla(0, 0%, 3.6%, 0.18)" stroke-width="1.5"></path><path d="M-99.5 1422.69L71.92 1433.03" stroke="hsla(0, 0%, 3.6%, 0.18)" stroke-width="1.5"></path><path d="M-99.5 1422.69L222.54 1408.38" stroke="hsla(0, 0%, 3.6%, 0.18)" stroke-width="1.5"></path><path d="M71.92 1433.03L71.92 1433.03" stroke="hsla(0, 0%, 3.6%, 0.18)" stroke-width="1.5"></path><path d="M209.09 1254.05L209.09 1254.05" stroke="hsla(0, 0%, 3.6%, 0.18)" stroke-width="1.5"></path><path d="M209.09 1254.05L348.32 1256.24" stroke="hsla(0, 0%, 3.6%, 0.18)" stroke-width="1.5"></path><path d="M209.09 1254.05L222.54 1408.38" stroke="hsla(0, 0%, 3.6%, 0.18)" stroke-width="1.5"></path><path d="M222.54 1408.38L222.54 1408.38" stroke="hsla(0, 0%, 3.6%, 0.18)" stroke-width="1.5"></path><path d="M222.54 1408.38L355.34 1405.43" stroke="hsla(0, 0%, 3.6%, 0.18)" stroke-width="1.5"></path><path d="M222.54 1408.38L71.92 1433.03" stroke="hsla(0, 0%, 3.6%, 0.18)" stroke-width="1.5"></path><path d="M222.54 1408.38L242.66 1597.46" stroke="hsla(0, 0%, 3.6%, 0.18)" stroke-width="1.5"></path><path d="M242.66 1597.46L242.66 1597.46" stroke="hsla(0, 0%, 3.6%, 0.18)" stroke-width="1.5"></path><path d="M242.66 1597.46L382.57 1570.03" stroke="hsla(0, 0%, 3.6%, 0.18)" stroke-width="1.5"></path><path d="M394.87 993.43L394.87 993.43" stroke="hsla(0, 0%, 3.6%, 0.18)" stroke-width="1.5"></path><path d="M394.87 993.43L339.42 1146.52" stroke="hsla(0, 0%, 3.6%, 0.18)" stroke-width="1.5"></path><path d="M394.87 993.43L492.52 846.08" stroke="hsla(0, 0%, 3.6%, 0.18)" stroke-width="1.5"></path><path d="M394.87 993.43L348.32 1256.24" stroke="hsla(0, 0%, 3.6%, 0.18)" stroke-width="1.5"></path><path d="M394.87 993.43L673.15 1002.55" stroke="hsla(0, 0%, 3.6%, 0.18)" stroke-width="1.5"></path><path d="M348.32 1256.24L348.32 1256.24" stroke="hsla(0, 0%, 3.6%, 0.18)" stroke-width="1.5"></path><path d="M348.32 1256.24L355.34 1405.43" stroke="hsla(0, 0%, 3.6%, 0.18)" stroke-width="1.5"></path><path d="M348.32 1256.24L222.54 1408.38" stroke="hsla(0, 0%, 3.6%, 0.18)" stroke-width="1.5"></path><path d="M355.34 1405.43L355.34 1405.43" stroke="hsla(0, 0%, 3.6%, 0.18)" stroke-width="1.5"></path><path d="M382.57 1570.03L382.57 1570.03" stroke="hsla(0, 0%, 3.6%, 0.18)" stroke-width="1.5"></path><path d="M382.57 1570.03L517.45 1611.8" stroke="hsla(0, 0%, 3.6%, 0.18)" stroke-width="1.5"></path><path d="M382.57 1570.03L355.34 1405.43" stroke="hsla(0, 0%, 3.6%, 0.18)" stroke-width="1.5"></path><path d="M382.57 1570.03L509.32 1396.22" stroke="hsla(0, 0%, 3.6%, 0.18)" stroke-width="1.5"></path><path d="M382.57 1570.03L222.54 1408.38" stroke="hsla(0, 0%, 3.6%, 0.18)" stroke-width="1.5"></path><path d="M382.57 1570.03L652.81 1574.63" stroke="hsla(0, 0%, 3.6%, 0.18)" stroke-width="1.5"></path><path d="M545.74 529.04L545.74 529.04" stroke="hsla(0, 0%, 3.6%, 0.18)" stroke-width="1.5"></path><path d="M545.74 529.04L655.77 542.24" stroke="hsla(0, 0%, 3.6%, 0.18)" stroke-width="1.5"></path><path d="M545.74 529.04L532.79 640.05" stroke="hsla(0, 0%, 3.6%, 0.18)" stroke-width="1.5"></path><path d="M545.74 529.04L655.22 691.93" stroke="hsla(0, 0%, 3.6%, 0.18)" stroke-width="1.5"></path><path d="M545.74 529.04L710.51 352.9" stroke="hsla(0, 0%, 3.6%, 0.18)" stroke-width="1.5"></path><path d="M545.74 529.04L806.19 490.46" stroke="hsla(0, 0%, 3.6%, 0.18)" stroke-width="1.5"></path><path d="M532.79 640.05L532.79 640.05" stroke="hsla(0, 0%, 3.6%, 0.18)" stroke-width="1.5"></path><path d="M532.79 640.05L655.22 691.93" stroke="hsla(0, 0%, 3.6%, 0.18)" stroke-width="1.5"></path><path d="M532.79 640.05L655.77 542.24" stroke="hsla(0, 0%, 3.6%, 0.18)" stroke-width="1.5"></path><path d="M532.79 640.05L492.52 846.08" stroke="hsla(0, 0%, 3.6%, 0.18)" stroke-width="1.5"></path><path d="M532.79 640.05L701.22 838.85" stroke="hsla(0, 0%, 3.6%, 0.18)" stroke-width="1.5"></path><path d="M492.52 846.08L492.52 846.08" stroke="hsla(0, 0%, 3.6%, 0.18)" stroke-width="1.5"></path><path d="M492.52 846.08L701.22 838.85" stroke="hsla(0, 0%, 3.6%, 0.18)" stroke-width="1.5"></path><path d="M492.52 846.08L655.22 691.93" stroke="hsla(0, 0%, 3.6%, 0.18)" stroke-width="1.5"></path><path d="M492.52 846.08L673.15 1002.55" stroke="hsla(0, 0%, 3.6%, 0.18)" stroke-width="1.5"></path><path d="M509.32 1396.22L509.32 1396.22" stroke="hsla(0, 0%, 3.6%, 0.18)" stroke-width="1.5"></path><path d="M509.32 1396.22L355.34 1405.43" stroke="hsla(0, 0%, 3.6%, 0.18)" stroke-width="1.5"></path><path d="M517.45 1611.8L517.45 1611.8" stroke="hsla(0, 0%, 3.6%, 0.18)" stroke-width="1.5"></path><path d="M517.45 1611.8L652.81 1574.63" stroke="hsla(0, 0%, 3.6%, 0.18)" stroke-width="1.5"></path><path d="M517.45 1611.8L662.17 1460.92" stroke="hsla(0, 0%, 3.6%, 0.18)" stroke-width="1.5"></path><path d="M653.09 -91.2L653.09 -91.2" stroke="hsla(0, 0%, 3.6%, 0.18)" stroke-width="1.5"></path><path d="M653.09 -91.2L838.61 -45.7" stroke="hsla(0, 0%, 3.6%, 0.18)" stroke-width="1.5"></path><path d="M653.09 -91.2L816.11 73.77" stroke="hsla(0, 0%, 3.6%, 0.18)" stroke-width="1.5"></path><path d="M653.09 -91.2L862.29 238.78" stroke="hsla(0, 0%, 3.6%, 0.18)" stroke-width="1.5"></path><path d="M653.09 -91.2L710.51 352.9" stroke="hsla(0, 0%, 3.6%, 0.18)" stroke-width="1.5"></path><path d="M655.77 542.24L655.77 542.24" stroke="hsla(0, 0%, 3.6%, 0.18)" stroke-width="1.5"></path><path d="M655.77 542.24L655.22 691.93" stroke="hsla(0, 0%, 3.6%, 0.18)" stroke-width="1.5"></path><path d="M655.77 542.24L806.19 490.46" stroke="hsla(0, 0%, 3.6%, 0.18)" stroke-width="1.5"></path><path d="M655.22 691.93L655.22 691.93" stroke="hsla(0, 0%, 3.6%, 0.18)" stroke-width="1.5"></path><path d="M655.22 691.93L796.14 676.11" stroke="hsla(0, 0%, 3.6%, 0.18)" stroke-width="1.5"></path><path d="M655.22 691.93L701.22 838.85" stroke="hsla(0, 0%, 3.6%, 0.18)" stroke-width="1.5"></path><path d="M701.22 838.85L701.22 838.85" stroke="hsla(0, 0%, 3.6%, 0.18)" stroke-width="1.5"></path><path d="M701.22 838.85L831.84 845.57" stroke="hsla(0, 0%, 3.6%, 0.18)" stroke-width="1.5"></path><path d="M701.22 838.85L673.15 1002.55" stroke="hsla(0, 0%, 3.6%, 0.18)" stroke-width="1.5"></path><path d="M701.22 838.85L796.14 676.11" stroke="hsla(0, 0%, 3.6%, 0.18)" stroke-width="1.5"></path><path d="M673.15 1002.55L673.15 1002.55" stroke="hsla(0, 0%, 3.6%, 0.18)" stroke-width="1.5"></path><path d="M673.15 1002.55L690.81 1104.21" stroke="hsla(0, 0%, 3.6%, 0.18)" stroke-width="1.5"></path><path d="M673.15 1002.55L811.88 1150.09" stroke="hsla(0, 0%, 3.6%, 0.18)" stroke-width="1.5"></path><path d="M690.81 1104.21L690.81 1104.21" stroke="hsla(0, 0%, 3.6%, 0.18)" stroke-width="1.5"></path><path d="M690.81 1104.21L811.88 1150.09" stroke="hsla(0, 0%, 3.6%, 0.18)" stroke-width="1.5"></path><path d="M690.81 1104.21L684.45 1260.85" stroke="hsla(0, 0%, 3.6%, 0.18)" stroke-width="1.5"></path><path d="M684.45 1260.85L684.45 1260.85" stroke="hsla(0, 0%, 3.6%, 0.18)" stroke-width="1.5"></path><path d="M662.17 1460.92L662.17 1460.92" stroke="hsla(0, 0%, 3.6%, 0.18)" stroke-width="1.5"></path><path d="M662.17 1460.92L652.81 1574.63" stroke="hsla(0, 0%, 3.6%, 0.18)" stroke-width="1.5"></path><path d="M662.17 1460.92L509.32 1396.22" stroke="hsla(0, 0%, 3.6%, 0.18)" stroke-width="1.5"></path><path d="M662.17 1460.92L684.45 1260.85" stroke="hsla(0, 0%, 3.6%, 0.18)" stroke-width="1.5"></path><path d="M652.81 1574.63L652.81 1574.63" stroke="hsla(0, 0%, 3.6%, 0.18)" stroke-width="1.5"></path><path d="M838.61 -45.7L838.61 -45.7" stroke="hsla(0, 0%, 3.6%, 0.18)" stroke-width="1.5"></path><path d="M838.61 -45.7L816.11 73.77" stroke="hsla(0, 0%, 3.6%, 0.18)" stroke-width="1.5"></path><path d="M838.61 -45.7L862.29 238.78" stroke="hsla(0, 0%, 3.6%, 0.18)" stroke-width="1.5"></path><path d="M838.61 -45.7L710.51 352.9" stroke="hsla(0, 0%, 3.6%, 0.18)" stroke-width="1.5"></path><path d="M838.61 -45.7L806.19 490.46" stroke="hsla(0, 0%, 3.6%, 0.18)" stroke-width="1.5"></path><path d="M816.11 73.77L816.11 73.77" stroke="hsla(0, 0%, 3.6%, 0.18)" stroke-width="1.5"></path><path d="M816.11 73.77L862.29 238.78" stroke="hsla(0, 0%, 3.6%, 0.18)" stroke-width="1.5"></path><path d="M816.11 73.77L710.51 352.9" stroke="hsla(0, 0%, 3.6%, 0.18)" stroke-width="1.5"></path><path d="M862.29 238.78L862.29 238.78" stroke="hsla(0, 0%, 3.6%, 0.18)" stroke-width="1.5"></path><path d="M806.19 490.46L806.19 490.46" stroke="hsla(0, 0%, 3.6%, 0.18)" stroke-width="1.5"></path><path d="M806.19 490.46L796.14 676.11" stroke="hsla(0, 0%, 3.6%, 0.18)" stroke-width="1.5"></path><path d="M796.14 676.11L796.14 676.11" stroke="hsla(0, 0%, 3.6%, 0.18)" stroke-width="1.5"></path><path d="M831.84 845.57L831.84 845.57" stroke="hsla(0, 0%, 3.6%, 0.18)" stroke-width="1.5"></path><path d="M831.84 845.57L796.14 676.11" stroke="hsla(0, 0%, 3.6%, 0.18)" stroke-width="1.5"></path><path d="M831.84 845.57L673.15 1002.55" stroke="hsla(0, 0%, 3.6%, 0.18)" stroke-width="1.5"></path><path d="M831.84 845.57L655.22 691.93" stroke="hsla(0, 0%, 3.6%, 0.18)" stroke-width="1.5"></path><path d="M811.88 1150.09L811.88 1150.09" stroke="hsla(0, 0%, 3.6%, 0.18)" stroke-width="1.5"></path><path d="M811.88 1150.09L844.74 1239.05" stroke="hsla(0, 0%, 3.6%, 0.18)" stroke-width="1.5"></path><path d="M811.88 1150.09L684.45 1260.85" stroke="hsla(0, 0%, 3.6%, 0.18)" stroke-width="1.5"></path><path d="M811.88 1150.09L548.59 1241.58" stroke="hsla(0, 0%, 3.6%, 0.18)" stroke-width="1.5"></path><path d="M811.88 1150.09L831.84 845.57" stroke="hsla(0, 0%, 3.6%, 0.18)" stroke-width="1.5"></path><path d="M844.74 1239.05L844.74 1239.05" stroke="hsla(0, 0%, 3.6%, 0.18)" stroke-width="1.5"></path><path d="M844.74 1239.05L684.45 1260.85" stroke="hsla(0, 0%, 3.6%, 0.18)" stroke-width="1.5"></path><path d="M844.74 1239.05L690.81 1104.21" stroke="hsla(0, 0%, 3.6%, 0.18)" stroke-width="1.5"></path><path d="M844.74 1239.05L662.17 1460.92" stroke="hsla(0, 0%, 3.6%, 0.18)" stroke-width="1.5"></path><path d="M844.74 1239.05L673.15 1002.55" stroke="hsla(0, 0%, 3.6%, 0.18)" stroke-width="1.5"></path><path d="M844.74 1239.05L548.59 1241.58" stroke="hsla(0, 0%, 3.6%, 0.18)" stroke-width="1.5"></path><path d="M857.42 1588.32L857.42 1588.32" stroke="hsla(0, 0%, 3.6%, 0.18)" stroke-width="1.5"></path><path d="M857.42 1588.32L652.81 1574.63" stroke="hsla(0, 0%, 3.6%, 0.18)" stroke-width="1.5"></path><circle r="25" cx="-54.71" cy="1563.82" fill="url(#SvgjsRadialGradient1677)"></circle><circle r="25" cx="51.48" cy="1300.01" fill="url(#SvgjsRadialGradient1677)"></circle><circle r="25" cx="50.24" cy="1556.21" fill="url(#SvgjsRadialGradient1677)"></circle><circle r="25" cx="339.42" cy="1146.52" fill="url(#SvgjsRadialGradient1677)"></circle><circle r="25" cx="535.94" cy="406.26" fill="url(#SvgjsRadialGradient1677)"></circle><circle r="25" cx="498.63" cy="1119.31" fill="url(#SvgjsRadialGradient1677)"></circle><circle r="25" cx="548.59" cy="1241.58" fill="url(#SvgjsRadialGradient1677)"></circle><circle r="25" cx="710.51" cy="352.9" fill="url(#SvgjsRadialGradient1677)"></circle><circle r="5" cx="-43.67" cy="1238.67" fill="rgba(233, 233, 233, 0.59)"></circle><circle r="5" cx="-99.5" cy="1422.69" fill="rgba(233, 233, 233, 0.59)"></circle><circle r="5" cx="71.92" cy="1433.03" fill="rgba(233, 233, 233, 0.59)"></circle><circle r="5" cx="209.09" cy="1254.05" fill="rgba(233, 233, 233, 0.59)"></circle><circle r="5" cx="222.54" cy="1408.38" fill="rgba(233, 233, 233, 0.59)"></circle><circle r="5" cx="242.66" cy="1597.46" fill="rgba(233, 233, 233, 0.59)"></circle><circle r="5" cx="394.87" cy="993.43" fill="rgba(233, 233, 233, 0.59)"></circle><circle r="5" cx="348.32" cy="1256.24" fill="rgba(233, 233, 233, 0.59)"></circle><circle r="5" cx="355.34" cy="1405.43" fill="rgba(233, 233, 233, 0.59)"></circle><circle r="5" cx="382.57" cy="1570.03" fill="rgba(233, 233, 233, 0.59)"></circle><circle r="5" cx="545.74" cy="529.04" fill="rgba(233, 233, 233, 0.59)"></circle><circle r="5" cx="532.79" cy="640.05" fill="rgba(233, 233, 233, 0.59)"></circle><circle r="5" cx="492.52" cy="846.08" fill="rgba(233, 233, 233, 0.59)"></circle><circle r="5" cx="509.32" cy="1396.22" fill="rgba(233, 233, 233, 0.59)"></circle><circle r="5" cx="517.45" cy="1611.8" fill="rgba(233, 233, 233, 0.59)"></circle><circle r="5" cx="653.09" cy="-91.2" fill="rgba(233, 233, 233, 0.59)"></circle><circle r="5" cx="655.77" cy="542.24" fill="rgba(233, 233, 233, 0.59)"></circle><circle r="5" cx="655.22" cy="691.93" fill="rgba(233, 233, 233, 0.59)"></circle><circle r="5" cx="701.22" cy="838.85" fill="rgba(233, 233, 233, 0.59)"></circle><circle r="5" cx="673.15" cy="1002.55" fill="rgba(233, 233, 233, 0.59)"></circle><circle r="5" cx="690.81" cy="1104.21" fill="rgba(233, 233, 233, 0.59)"></circle><circle r="5" cx="684.45" cy="1260.85" fill="rgba(233, 233, 233, 0.59)"></circle><circle r="5" cx="662.17" cy="1460.92" fill="rgba(233, 233, 233, 0.59)"></circle><circle r="5" cx="652.81" cy="1574.63" fill="rgba(233, 233, 233, 0.59)"></circle><circle r="5" cx="838.61" cy="-45.7" fill="rgba(233, 233, 233, 0.59)"></circle><circle r="5" cx="816.11" cy="73.77" fill="rgba(233, 233, 233, 0.59)"></circle><circle r="5" cx="862.29" cy="238.78" fill="rgba(233, 233, 233, 0.59)"></circle><circle r="5" cx="806.19" cy="490.46" fill="rgba(233, 233, 233, 0.59)"></circle><circle r="5" cx="796.14" cy="676.11" fill="rgba(233, 233, 233, 0.59)"></circle><circle r="5" cx="831.84" cy="845.57" fill="rgba(233, 233, 233, 0.59)"></circle><circle r="5" cx="811.88" cy="1150.09" fill="rgba(233, 233, 233, 0.59)"></circle><circle r="5" cx="844.74" cy="1239.05" fill="rgba(233, 233, 233, 0.59)"></circle><circle r="5" cx="857.42" cy="1588.32" fill="rgba(233, 233, 233, 0.59)"></circle></g><defs><mask id="SvgjsMask1675"><rect width="700" height="1500" fill="#ffffff"></rect></mask><linearGradient x1="50%" y1="0%" x2="50%" y2="100%" gradientUnits="userSpaceOnUse" id="SvgjsLinearGradient1676"><stop stop-color="#0e2a47" offset="0"></stop><stop stop-color="rgba(247, 255, 255, 1)" offset="0"></stop></linearGradient><radialGradient id="SvgjsRadialGradient1677"><stop stop-color="#ffffff" offset="0.1"></stop><stop stop-color="rgba(7, 7, 7, 0.18)" offset="0.2"></stop><stop stop-color="rgba(7, 7, 7, 0)" offset="1"></stop></radialGradient></defs></svg>