<svg xmlns="http://www.w3.org/2000/svg" version="1.1" xmlns:xlink="http://www.w3.org/1999/xlink" xmlns:svgjs="http://svgjs.com/svgjs" width="1440" height="560" preserveAspectRatio="none" viewBox="0 0 1440 560"><g mask="url(&quot;#SvgjsMask1005&quot;)" fill="none"><rect width="1440" height="560" x="0" y="0" fill="#0e2a47"></rect><path d="M571.23 85.64L618.5 85.64L618.5 132.91L571.23 132.91z" stroke="#d3b714"></path><path d="M886.74 431.76L938.62 431.76L938.62 447.67L886.74 447.67z" fill="#037b0b"></path><path d="M19.39 170.64L38.77 170.64L38.77 190.02L19.39 190.02z" fill="#e73635"></path><path d="M1343.52 27.76a29.51 29.51 0 1 0-17.21 56.45z" fill="#037b0b"></path><path d="M1010.75 224.91L1033.04 224.91L1033.04 247.2L1010.75 247.2z" stroke="#e73635"></path><path d="M1302.32 213.57 a22.22 22.22 0 1 0 44.44 0 a22.22 22.22 0 1 0 -44.44 0z" stroke="#d3b714"></path><path d="M548.15 44.37L597.28 44.37L597.28 77.58L548.15 77.58z" stroke="#037b0b"></path><path d="M819.75 416.76a34.13 34.13 0 1 0 31.32 60.65z" stroke="#037b0b"></path><path d="M1159.3 167.57L1167.85 167.57L1167.85 176.12L1159.3 176.12z" stroke="#037b0b"></path><path d="M611.65 127.27a39.95 39.95 0 1 0 22.12-76.78z" fill="#d3b714"></path><path d="M1348.68 329.97L1361.93 329.97L1361.93 343.22L1348.68 343.22z" stroke="#d3b714"></path><path d="M1125.23 146.37L1143.05 146.37L1143.05 164.19L1125.23 164.19z" fill="#037b0b"></path><path d="M1191.69 346.91L1238.92 346.91L1238.92 361.86L1191.69 361.86z" fill="#d3b714"></path><path d="M1250.14 546.06L1266.83 546.06L1266.83 562.75L1250.14 562.75z" stroke="#037b0b"></path><path d="M1385.87 301.23a30.49 30.49 0 1 0-59.77-12.08z" fill="#e73635"></path><path d="M6.65 253.01L22.57 253.01L22.57 268.93L6.65 268.93z" stroke="#d3b714"></path><path d="M1024.91 237.23a26.58 26.58 0 1 0-31.21 43.03z" fill="#e73635"></path><path d="M865.32 223.17L908.99 223.17L908.99 266.84L865.32 266.84z" fill="#e73635"></path><path d="M490.62 262.61L503.29 262.61L503.29 275.28L490.62 275.28z" stroke="#037b0b"></path><path d="M64.64 100.46L115.01 100.46L115.01 117.32L64.64 117.32z" fill="#d3b714"></path><path d="M79.8 311.73 a8.01 8.01 0 1 0 16.02 0 a8.01 8.01 0 1 0 -16.02 0z" fill="#037b0b"></path><path d="M45.11 104.29 a36.86 36.86 0 1 0 73.72 0 a36.86 36.86 0 1 0 -73.72 0z" fill="#e73635"></path><path d="M1241.71 397.26L1297.28 397.26L1297.28 452.83L1241.71 452.83z" fill="#037b0b"></path><path d="M724.34 153.88 a11.7 11.7 0 1 0 23.4 0 a11.7 11.7 0 1 0 -23.4 0z" fill="#e73635"></path><path d="M1372.9 83.8 a38.54 38.54 0 1 0 77.08 0 a38.54 38.54 0 1 0 -77.08 0z" fill="#037b0b"></path><path d="M168.05 519.28L208.24 519.28L208.24 532.24L168.05 532.24z" stroke="#d3b714"></path><path d="M206.05 12.28 a4.2 4.2 0 1 0 8.4 0 a4.2 4.2 0 1 0 -8.4 0z" fill="#037b0b"></path><path d="M642.66 122.05L698.43 122.05L698.43 177.82L642.66 177.82z" stroke="#037b0b"></path><path d="M738.28 242.48L784.57 242.48L784.57 288.77L738.28 288.77z" stroke="#e73635"></path><path d="M785.19 57.96L811.64 57.96L811.64 77.24L785.19 77.24z" fill="#e73635"></path><path d="M1282.12 261.8 a50.36 50.36 0 1 0 100.72 0 a50.36 50.36 0 1 0 -100.72 0z" stroke="#d3b714"></path><path d="M624.01 186.94L678.95 186.94L678.95 241.88L624.01 241.88z" fill="#037b0b"></path><path d="M252.77 350.98L283.17 350.98L283.17 381.38L252.77 381.38z" fill="#d3b714"></path></g><defs><mask id="SvgjsMask1005"><rect width="1440" height="560" fill="#ffffff"></rect></mask></defs></svg>