<?xml version="1.0" encoding="utf-8"?>
<svg width="382px" height="382px" viewBox="0 0 382 382" version="1.1" xmlns:xlink="http://www.w3.org/1999/xlink" xmlns="http://www.w3.org/2000/svg">
  <desc>Created with Lunacy</desc>
  <defs>
    <linearGradient x1="4.7683716E-07" y1="0.49999875" x2="1.0000005" y2="0.49999875" id="gradient_1">
      <stop offset="0" stop-color="#D6D7D8" />
      <stop offset="1" stop-color="#EEEEEE" />
    </linearGradient>
    <path d="M0 0L381.6 0L381.6 381.6L0 381.6L0 0Z" id="path_1" />
    <clipPath id="mask_1">
      <use xlink:href="#path_1" />
    </clipPath>
  </defs>
  <g id="Education">
    <path d="M0 0L381.6 0L381.6 381.6L0 381.6L0 0Z" id="Background" fill="none" fill-rule="evenodd" stroke="none" />
    <g clip-path="url(#mask_1)">
      <g id="Group" transform="matrix(2.87 0 0 2.8719723 38.16037 130.76233)">
        <g id="Group">
          <path d="M0 52.9994C1.33763 52.3738 2.60251 52.4064 3.80481 52.9994L3.80481 0.38081C2.89863 -0.113235 1.6503 -0.140456 3.88183e-06 0.38081L0 52.9994L0 52.9994L0 52.9994Z" transform="translate(62.177265 3.2624617)" id="Shape" fill="#1D72D8" fill-rule="evenodd" stroke="none" />
          <path d="M0 0L48.0768 0L48.0768 52.6544L0 52.6544L0 0Z" transform="translate(14.263066 3.6310575)" id="Rectangle" fill="#428DFC" fill-rule="evenodd" stroke="none" />
          <path d="M0 0L4.16402 0L4.16402 9.15458L0 9.15458L0 0Z" transform="translate(53.041256 4.262477)" id="Rectangle" fill="#81AEF2" fill-rule="evenodd" stroke="none" />
          <path d="M28.9596 69.8903L0 52.6542L0 0L29.1489 14.2683L28.9596 69.8903Z" transform="translate(65.93603 3.6310575)" id="Polygon" fill="#428DFC" fill-rule="evenodd" stroke="none" />
          <path d="M5.36224 52.8445L30.5364 67.4285L30.5364 13.3199L2.82994 0L0 0.0770831L5.36224 52.8445Z" transform="translate(63.349796 5.461215)" id="Polygon" fill="#FFFFFF" fill-rule="evenodd" stroke="none" />
          <path d="M0 0L45.4269 0L45.4269 52.6544L0 52.6544L0 0Z" transform="translate(17.859264 5.5250635)" id="Rectangle" fill="#D6D7D8" fill-rule="evenodd" stroke="none" />
          <path d="M44.4803 52.6544L0 55.306L0 2.65187L44.4803 0L44.4803 52.6544Z" transform="translate(18.805632 5.5250635)" id="Polygon" fill="#EEEEEE" fill-rule="evenodd" stroke="none" />
          <path d="M1.45059 52.7931L26.6245 67.3771L26.6245 13.3972L0 0L1.45059 52.7931Z" transform="translate(63.349796 5.512603)" id="Polygon" fill="#EEEEEE" fill-rule="evenodd" stroke="none" />
          <path d="M0 52.6544L24.7956 67.4282L24.7956 14.7735L0 0L0 52.6544Z" transform="translate(63.28595 5.5250635)" id="Polygon" fill="#D6D7D8" fill-rule="evenodd" stroke="none" />
          <path d="M0 52.6544L22.9026 67.0494L22.9026 14.3947L0 0L0 52.6544Z" transform="translate(63.28595 5.5250635)" id="Polygon" fill="url(#gradient_1)" fill-rule="evenodd" stroke="none" />
          <path d="M0 0L4.16402 0L4.16402 54.0435L0 54.0435L0 0Z" transform="translate(89.72192 18.783377)" id="Rectangle" fill="#D6D7D8" fill-rule="evenodd" stroke="none" />
          <g id="Group" transform="translate(66.69312 17.196436)">
            <path d="M14.9529 12.2023L0 3.37945L0 0L14.9529 8.82259L14.9529 12.2023Z" transform="translate(0 -3.8818357E-06)" id="Polygon" fill="#D6D7D8" fill-rule="evenodd" stroke="none" />
            <path d="M14.9529 12.202L0 3.3792L0 0L14.9529 8.82259L14.9529 12.202Z" transform="translate(0 7.1343946)" id="Polygon" fill="#D6D7D8" fill-rule="evenodd" stroke="none" />
            <path d="M14.9529 12.2023L0 3.3797L0 0L14.9529 8.82285L14.9529 12.2023Z" transform="translate(0 14.26827)" id="Polygon" fill="#D6D7D8" fill-rule="evenodd" stroke="none" />
            <path d="M14.9529 12.202L0 3.3792L0 0L14.9529 8.82234L14.9529 12.202Z" transform="translate(0 21.40292)" id="Polygon" fill="#D6D7D8" fill-rule="evenodd" stroke="none" />
            <path d="M14.9529 12.2018L0 3.3792L0 0L14.9529 8.82285L14.9529 12.2018Z" transform="translate(0 28.53706)" id="Polygon" fill="#D6D7D8" fill-rule="evenodd" stroke="none" />
            <path d="M14.9529 12.202L0 3.37945L0 0L14.9529 8.82259L14.9529 12.202Z" transform="translate(0 35.671196)" id="Polygon" fill="#D6D7D8" fill-rule="evenodd" stroke="none" />
          </g>
          <g id="Group" transform="translate(25.051914 16.442137)">
            <path d="M32.5558 3.37945L0 4.99794L0 1.61875L32.5558 0L32.5558 3.37945Z" id="Polygon" fill="#F6F6F6" fill-rule="evenodd" stroke="none" />
            <path d="M32.5558 3.37945L0 4.99845L0 1.61875L32.5558 0L32.5558 3.37945Z" transform="translate(0 7.134134)" id="Polygon" fill="#F6F6F6" fill-rule="evenodd" stroke="none" />
            <path d="M32.5558 3.37945L0 4.9982L0 1.61926L32.5558 0L32.5558 3.37945Z" transform="translate(0 14.268271)" id="Polygon" fill="#F6F6F6" fill-rule="evenodd" stroke="none" />
            <path d="M32.5558 3.37945L0 4.9982L0 1.61875L32.5558 0L32.5558 3.37945Z" transform="translate(0 21.402666)" id="Polygon" fill="#F6F6F6" fill-rule="evenodd" stroke="none" />
            <path d="M32.5558 3.37894L0 4.9982L0 1.61875L32.5558 0L32.5558 3.37894Z" transform="translate(0 28.53706)" id="Polygon" fill="#F6F6F6" fill-rule="evenodd" stroke="none" />
            <path d="M32.5558 3.3797L0 4.99845L0 1.619L32.5558 0L32.5558 3.3797Z" transform="translate(0 35.670948)" id="Polygon" fill="#F6F6F6" fill-rule="evenodd" stroke="none" />
          </g>
          <path d="M1.34603 2.75973L0 1.34679L1.41192 0L2.75795 1.41268L1.34603 2.75973Z" transform="translate(28.270077 15.972003)" id="Polygon" fill="#A1C3FC" fill-rule="evenodd" stroke="none" />
          <path d="M1.34603 2.75973L0 1.34679L1.41192 0L2.75795 1.41294L1.34603 2.75973Z" transform="translate(12.445376 41.750862)" id="Polygon" fill="#A1C3FC" fill-rule="evenodd" stroke="none" />
          <path d="M1.34603 2.75973L0 1.34679L1.41217 0L2.75821 1.41294L1.34603 2.75973Z" transform="translate(19.473433 48.304466)" id="Polygon" fill="#FFFFFF" fill-rule="evenodd" stroke="none" />
          <path d="M3.57628e-07 0L3.23363 9.53674e-07L3.23363 3.2316L0 3.2316L3.57628e-07 0Z" transform="matrix(-0.2057 0.9786001 -0.9786 -0.20570001 9.657857 2.044559)" id="Rectangle" fill="#E94A47" fill-rule="evenodd" stroke="none" />
          <path d="M0 0.809498L3.12887 0L3.93786 3.13115L0.808998 3.9404L0 0.809498Z" transform="translate(93.47839 34.288033)" id="Polygon" fill="#23286B" fill-rule="evenodd" stroke="none" />
          <g id="Group" transform="translate(12.194154 0)">
            <path d="M20.7655 11.6406C20.7116 11.6406 20.6628 11.6042 20.6493 11.5495C19.9863 8.86686 17.7473 6.88941 15.8711 5.4663C12.0625 2.57784 6.24209 -0.635233 0.141068 0.458941C0.0761956 0.471661 0.0138679 0.427396 0.00191083 0.362015C-0.00979193 0.296888 0.0334566 0.234561 0.0988374 0.222858C6.28737 -0.88658 12.1699 2.35804 16.0161 5.27473C17.9239 6.72176 20.2013 8.73584 20.8823 11.4915C20.8981 11.5556 20.8592 11.6207 20.7948 11.6365C20.7846 11.6393 20.7752 11.6406 20.7655 11.6406L20.7655 11.6406Z" id="Shape" fill="#23286B" fill-rule="evenodd" stroke="none" />
          </g>
          <g id="Group" transform="translate(0 15.348732)">
            <path d="M0.119698 6.17046C0.107487 6.17046 0.095021 6.16843 0.0828098 6.16461C0.0197186 6.14426 -0.0146254 6.07659 0.00598102 6.01375C0.305155 5.09231 0.634858 4.32377 1.27264 3.56795C1.82825 2.90956 2.44059 2.36235 2.99696 2.02654C5.92205 0.262785 8.37447 -0.341161 10.4959 0.181377C10.56 0.19715 10.5995 0.261768 10.5837 0.326385C10.5679 0.391003 10.5041 0.430689 10.4387 0.414153C8.38261 -0.0913396 5.98871 0.502684 3.1206 2.2321C2.58611 2.55468 1.99463 3.08383 1.4553 3.72288C0.843211 4.44868 0.524194 5.19306 0.233923 6.08778C0.216879 6.13815 0.170323 6.17046 0.119698 6.17046L0.119698 6.17046Z" id="Shape" fill="#23286B" fill-rule="evenodd" stroke="none" />
          </g>
          <g id="Group" transform="translate(82.16244 40.72858)">
            <path d="M12.935 3.60673C8.26976 3.60673 4.62676 2.61177 0.0643453 0.226261C0.00558208 0.195478 -0.0168084 0.123229 0.0134622 0.0644618C0.0442452 0.00569465 0.11675 -0.0169481 0.175257 0.0135825C5.64587 2.87406 9.78446 3.7179 15.9918 3.24065C18.041 3.08292 19.2575 2.58989 19.3621 2.206C19.3794 2.14215 19.4455 2.10424 19.5091 2.1218C19.573 2.13935 19.6104 2.20524 19.5934 2.26884C19.4379 2.83972 17.9978 3.32638 16.0101 3.47927C14.9287 3.56348 13.9093 3.60673 12.935 3.60673L12.935 3.60673Z" id="Shape" fill="#23286B" fill-rule="evenodd" stroke="none" />
          </g>
          <g id="Group" transform="translate(54.029602 4.2619724)">
            <path d="M1.65742 4.39654C1.77164 3.24411 1.20255 2.22193 0.600128 1.13997C0.3933 0.768543 0.182147 0.387706 0 0L0 7.84315C0.170956 7.52642 0.364811 7.21606 0.55688 6.9095C1.05398 6.11451 1.56812 5.29279 1.65742 4.39654L1.65742 4.39654Z" transform="translate(0.0010170407 21.885006)" id="Shape" fill="#A1C3FC" fill-rule="evenodd" stroke="none" />
            <path d="M1.807 6.4063C2.09142 4.78832 1.41751 3.28023 0.703924 1.68387C0.458173 1.13386 0.208097 0.56833 0 0L0 10.2892C0.205555 9.85164 0.446217 9.42908 0.682302 9.01695C1.17635 8.15505 1.64266 7.34122 1.807 6.4063L1.807 6.4063Z" transform="translate(0.00050463853 6.0890594)" id="Shape" fill="#A1C3FC" fill-rule="evenodd" stroke="none" />
            <path d="M0.656605 1.28574C0.524824 0.946112 0.340639 0.615395 0.162307 0.295105C0.107865 0.197671 0.053678 0.0989635 0 0L0 6.67774C0.722751 4.8598 1.30965 2.96758 0.656605 1.28574L0.656605 1.28574Z" transform="translate(0.0007608396 33.340645)" id="Shape" fill="#A1C3FC" fill-rule="evenodd" stroke="none" />
            <path d="M0.455044 5.64335C0.6779 6.32489 0.984449 7.01101 1.28108 7.67423C1.33298 7.79049 1.38488 7.90726 1.43652 8.02378L1.43652 0L0.379737 0C-0.138981 1.84033 -0.137964 3.83228 0.455044 5.64335L0.455044 5.64335Z" transform="translate(3.2362936 0.00050463865)" id="Shape" fill="#A1C3FC" fill-rule="evenodd" stroke="none" />
            <path d="M0.0200419 3.47383C0.0950894 4.05768 0.380781 4.57131 0.68377 5.11471C0.866173 5.44212 1.05468 5.78048 1.19231 6.13511C1.27856 6.3572 1.34292 6.58234 1.39074 6.80952L1.39074 0C1.28619 0.174011 1.17934 0.346493 1.07249 0.517196C0.461426 1.49358 -0.115807 2.41578 0.0200419 3.47383L0.0200419 3.47383Z" transform="translate(3.2823243 28.404013)" id="Shape" fill="#A1C3FC" fill-rule="evenodd" stroke="none" />
            <path d="M1.27818 0.329702C0.953817 0.895741 0.618007 1.48137 0.387267 2.09142C-0.14112 3.48706 -0.128147 5.08342 0.422118 6.47041C0.629707 6.99345 0.918197 7.51167 1.19702 8.01284C1.28708 8.17463 1.37714 8.3372 1.46567 8.50103L1.46567 0C1.40385 0.110663 1.34101 0.220564 1.27818 0.329702L1.27818 0.329702Z" transform="translate(3.2066362 14.895116)" id="Shape" fill="#A1C3FC" fill-rule="evenodd" stroke="none" />
            <path d="M0 0.2544C0.0807815 0.169031 0.170605 0.0845161 0.2544 0L0 0L0 0.2544L0 0.2544Z" transform="translate(0.0007608396 0.00050463865)" id="Shape" fill="#FFFFFF" fill-rule="evenodd" stroke="none" />
            <path d="M0.760397 7.65719C1.2725 6.83904 1.80191 5.99341 1.89604 5.04068C2.0179 3.81346 1.40378 2.71013 0.810007 1.64343C0.531186 1.14251 0.242696 0.624044 0.0351034 0.100998C0.0218741 0.0679263 0.0129692 0.0333275 0.000252319 0L0.000252319 0.620482C0.182656 1.00844 0.393556 1.38928 0.60038 1.76045C1.20305 2.84267 1.77215 3.86459 1.65767 5.01702C1.56888 5.91353 1.05423 6.73499 0.55688 7.52973C0.364807 7.83679 0.170956 8.14665 0 8.46338L0 9.00042C0.201735 8.55166 0.476996 8.11027 0.760397 7.65719L0.760397 7.65719Z" transform="translate(0 21.264524)" id="Shape" fill="#FFFFFF" fill-rule="evenodd" stroke="none" />
            <path d="M0.8904 9.91397C1.37274 9.07241 1.87162 8.20185 2.04283 7.22598C2.33997 5.536 1.61951 3.92336 0.922708 2.36388C0.626334 1.70015 0.319273 1.01404 0.0966732 0.333009C0.0608012 0.223363 0.0318 0.111172 0 0L0 0.777701C0.208097 1.34628 0.458173 1.91207 0.703924 2.46157C1.41751 4.05819 2.09117 5.56627 1.807 7.184C1.64266 8.11841 1.17634 8.93249 0.682555 9.79414C0.446473 10.2063 0.205811 10.6288 0.000252319 11.0664L0.000252319 11.6739C0.230996 11.0649 0.566294 10.48 0.8904 9.91397L0.8904 9.91397Z" transform="translate(0.00050463853 5.310852)" id="Shape" fill="#FFFFFF" fill-rule="evenodd" stroke="none" />
            <path d="M0.2544 0L0 0" transform="translate(1.1740532 40.4005)" id="Shape" fill="#FFFFFF" fill-rule="evenodd" stroke="none" />
            <path d="M0.661519 6.96598C0.110997 5.57874 0.0980241 3.98263 0.626668 2.58699C0.857408 1.97694 1.19296 1.39157 1.51758 0.825273C1.58016 0.716135 1.64325 0.60598 1.70533 0.495571L1.70533 0C1.57914 0.234048 1.44584 0.467841 1.30948 0.70596C0.98054 1.28065 0.639897 1.87417 0.402542 2.50177C-0.146706 3.95287 -0.133225 5.61206 0.438923 7.05451C0.652366 7.59231 0.944416 8.1174 1.22731 8.62518C1.3942 8.92461 1.55752 9.21945 1.70533 9.51354L1.70533 8.9966C1.61679 8.83302 1.52674 8.66995 1.43668 8.50841C1.1576 8.00749 0.869108 7.48954 0.661519 6.96598L0.661519 6.96598Z" transform="translate(2.9677482 14.399546)" id="Shape" fill="#FFFFFF" fill-rule="evenodd" stroke="none" />
            <path d="M0.466395 5.71866C0.693319 6.4119 1.00241 7.10386 1.30133 7.77294C1.4293 8.05939 1.55548 8.34254 1.67581 8.62416L1.67581 8.02428C1.62417 7.90751 1.57201 7.791 1.52037 7.67474C1.224 7.01101 0.91694 6.32489 0.69434 5.64386C0.101335 3.83228 0.100314 1.84058 0.619292 0L0.370742 0C-0.142382 1.86806 -0.134242 3.88367 0.466395 5.71866L0.466395 5.71866Z" transform="translate(2.9970016 0)" id="Shape" fill="#FFFFFF" fill-rule="evenodd" stroke="none" />
            <path d="M0.000252319 7.4903L0.143989 7.4903C0.919401 5.56882 1.58796 3.55041 0.879969 1.72738C0.742339 1.37275 0.553829 1.03414 0.371426 0.70698C0.238376 0.468351 0.109903 0.235321 0 0L0 0.528644C0.053678 0.627608 0.107865 0.726311 0.162307 0.823749C0.340643 1.14378 0.52508 1.47501 0.656605 1.81438C1.30965 3.49622 0.723003 5.3887 0 7.20665C0.000252319 7.20614 0.000252319 7.4903 0.000252319 7.4903L0.000252319 7.4903Z" transform="translate(0.0005124022 32.812256)" id="Shape" fill="#FFFFFF" fill-rule="evenodd" stroke="none" />
            <path d="M0.879208 34.5391C1.5872 36.3621 0.91864 38.3806 0.143228 40.302L1.08324 40.302C1.85559 38.3984 2.5412 36.396 1.85407 34.6259C1.72229 34.2862 1.5381 33.9555 1.35977 33.6352C1.05933 33.0959 0.748193 32.5375 0.667551 31.9079C0.521016 30.7646 1.14786 29.7625 1.75435 28.7938C2.2517 27.9993 2.7661 27.1773 2.85514 26.281C2.96936 25.1286 2.40027 24.1064 1.79785 23.0245C1.51521 22.5167 1.22316 21.9916 1.00946 21.4538C0.437064 20.0116 0.423834 18.3522 0.973083 16.9011C1.21044 16.2732 1.55108 15.6794 1.88002 15.1053C2.37406 14.2436 2.84038 13.4298 3.00447 12.4951C3.28888 10.8771 2.61498 9.36904 1.90139 7.77268C1.60247 7.10336 1.29337 6.41139 1.06645 5.7184C0.466065 3.88316 0.457668 1.8678 0.971049 0L0.0216296 0C0.0145064 0.0254401 0.00712705 0.0506254 3.88183e-06 0.0758113L3.88183e-06 5.3106C0.0315477 5.42177 0.0605527 5.5337 0.0966771 5.64361C0.319533 6.32514 0.626082 7.01126 0.922712 7.67448C1.61951 9.2337 2.33997 10.8463 2.04283 12.5366C1.87162 13.5125 1.37274 14.383 0.890404 15.2246C0.566045 15.7903 0.230744 16.3755 3.88183e-06 16.9853L3.88183e-06 21.2643C0.0124685 21.2976 0.0216296 21.3322 0.034855 21.3653C0.242444 21.8883 0.530934 22.4065 0.809758 22.9077C1.40378 23.9744 2.0179 25.0777 1.89579 26.305C1.80141 27.2572 1.27175 28.1033 0.760149 28.9215C0.476491 29.3745 0.20123 29.8162 0 30.2652L0 32.812C0.109903 33.0476 0.238372 33.2803 0.371426 33.519C0.553321 33.8461 0.74183 34.1845 0.879208 34.5391L0.879208 34.5391Z" transform="translate(0.0010170407 0.00025620117)" id="Shape" fill="#A1C3FC" fill-rule="evenodd" stroke="none" />
            <path d="M1.30948 15.1055C0.98054 15.6799 0.639897 16.2737 0.402542 16.9013C-0.146706 18.3524 -0.133225 20.0116 0.438923 21.4541C0.652366 21.9919 0.944415 22.517 1.22731 23.0247C1.82998 24.1069 2.39907 25.1289 2.2846 26.2813C2.19581 27.1778 1.68116 27.9993 1.18381 28.794C0.577318 29.763 -0.0497768 30.7649 0.0970109 31.9081C0.177656 32.5378 0.488785 33.0959 0.789231 33.6355C0.967567 33.9555 1.152 34.2868 1.28353 34.6261C1.97066 36.3962 1.28531 38.3986 0.512697 40.3023L0.770661 40.3023C1.54607 38.3808 2.21463 36.3624 1.50664 34.5394C1.36901 34.1847 1.1805 33.8461 0.998097 33.519C0.695361 32.9756 0.409417 32.4617 0.33437 31.8781C0.198773 30.8198 0.775754 29.8979 1.38682 28.9217C1.89893 28.1036 2.42833 27.2579 2.52246 26.3052C2.64432 25.078 2.0302 23.9747 1.43643 22.908C1.15761 22.407 0.869119 21.8886 0.661527 21.3655C0.111005 19.9783 0.0980318 18.3822 0.626676 16.9865C0.857416 16.3765 1.19297 15.7911 1.51758 15.2248C1.99993 14.3833 2.4988 13.5127 2.67002 12.5368C2.96715 10.8469 2.24669 9.23421 1.54989 7.67474C1.25352 7.01101 0.946457 6.32489 0.723857 5.64386C0.130853 3.83228 0.129832 1.84058 0.64881 0L0.40026 0C-0.112864 1.86781 -0.104724 3.88342 0.49566 5.7184C0.722584 6.41164 1.03168 7.10361 1.3306 7.77268C2.04419 9.3693 2.71784 10.8774 2.43368 12.4951C2.26958 13.43 1.80352 14.2439 1.30948 15.1055L1.30948 15.1055Z" transform="translate(0.5715536 0.00024455565)" id="Shape" fill="#FFFFFF" fill-rule="evenodd" stroke="none" />
            <path d="M1.27818 15.2246C0.953817 15.7906 0.618007 16.3762 0.387267 16.9863C-0.14112 18.3819 -0.128147 19.9783 0.422118 21.3653C0.629707 21.8883 0.918198 22.4065 1.19702 22.9077C1.79105 23.9744 2.40517 25.0777 2.28305 26.305C2.18867 27.2572 1.65901 28.1033 1.14741 28.9215C0.536345 29.8976 -0.040635 30.8198 0.0949613 31.8778C0.170009 32.4617 0.4557 32.9753 0.758689 33.5187C0.941093 33.8461 1.1296 34.1845 1.26723 34.5391C1.97523 36.3621 1.30666 38.3806 0.531252 40.302L1.47126 40.302C2.24362 38.3984 2.92923 36.396 2.24209 34.6259C2.11031 34.2862 1.92613 33.9555 1.7478 33.6352C1.44735 33.0959 1.13622 32.5375 1.05558 31.9079C0.90904 30.7646 1.53588 29.7625 2.14237 28.7938C2.63973 27.9993 3.15412 27.1773 3.24316 26.281C3.35739 25.1286 2.78829 24.1064 2.18587 23.0245C1.90324 22.5167 1.61118 21.9916 1.39749 21.4538C0.825088 20.0116 0.811859 18.3522 1.36111 16.9011C1.59846 16.2732 1.9391 15.6794 2.26804 15.1053C2.76209 14.2436 3.2284 13.4298 3.39249 12.4951C3.67691 10.8771 3.003 9.36904 2.28941 7.77268C1.99049 7.10336 1.6814 6.41139 1.45447 5.7184C0.854089 3.88316 0.845693 1.8678 1.35907 0L0.409654 0C-0.10932 1.84058 -0.108303 3.83203 0.484701 5.64386C0.707557 6.3254 1.01411 7.01152 1.31074 7.67474C2.00754 9.23396 2.728 10.8466 2.43086 12.5368C2.2594 13.5127 1.76052 14.383 1.27818 15.2246L1.27818 15.2246Z" transform="translate(0.8106979 0.00025620117)" id="Shape" fill="#A1C3FC" fill-rule="evenodd" stroke="none" />
            <path d="M1.30948 15.1055C0.98054 15.6799 0.639897 16.2737 0.402542 16.9013C-0.146706 18.3524 -0.133225 20.0116 0.438923 21.4541C0.652366 21.9919 0.944415 22.517 1.22731 23.0247C1.82998 24.1069 2.39907 25.1289 2.2846 26.2813C2.19581 27.1778 1.68116 27.9993 1.18381 28.794C0.577318 29.763 -0.0497768 30.7649 0.0970109 31.9081C0.177656 32.5378 0.488785 33.0959 0.789231 33.6355C0.967567 33.9555 1.152 34.2868 1.28353 34.6261C1.97066 36.3962 1.28531 38.3986 0.512697 40.3023L0.770661 40.3023C1.54607 38.3808 2.21463 36.3624 1.50664 34.5394C1.36901 34.1847 1.1805 33.8461 0.998097 33.519C0.695361 32.9756 0.409417 32.4617 0.33437 31.8781C0.198773 30.8198 0.775754 29.8979 1.38682 28.9217C1.89893 28.1036 2.42833 27.2579 2.52246 26.3052C2.64432 25.078 2.0302 23.9747 1.43643 22.908C1.15761 22.407 0.869119 21.8886 0.661527 21.3655C0.111005 19.9783 0.0980318 18.3822 0.626676 16.9865C0.857416 16.3765 1.19297 15.7911 1.51758 15.2248C1.99993 14.3833 2.4988 13.5127 2.67002 12.5368C2.96715 10.8469 2.24669 9.23421 1.54989 7.67474C1.25352 7.01101 0.946457 6.32489 0.723857 5.64386C0.130853 3.83228 0.129832 1.84058 0.64881 0L0.40026 0C-0.112864 1.86781 -0.104724 3.88342 0.49566 5.7184C0.722584 6.41164 1.03168 7.10361 1.3306 7.77268C2.04419 9.3693 2.71784 10.8774 2.43368 12.4951C2.26984 13.43 1.80352 14.2439 1.30948 15.1055L1.30948 15.1055Z" transform="translate(1.7695189 0.00024455565)" id="Shape" fill="#FFFFFF" fill-rule="evenodd" stroke="none" />
            <path d="M1.27818 15.2246C0.953817 15.7906 0.618007 16.3762 0.387267 16.9863C-0.14112 18.3819 -0.128147 19.9783 0.422118 21.3653C0.629707 21.8883 0.918198 22.4065 1.19702 22.9077C1.79105 23.9744 2.40517 25.0777 2.28305 26.305C2.18867 27.2572 1.65901 28.1033 1.14741 28.9215C0.536345 29.8976 -0.040635 30.8198 0.0949613 31.8778C0.170009 32.4617 0.4557 32.9753 0.758689 33.5187C0.941093 33.8461 1.1296 34.1845 1.26723 34.5391C1.97523 36.3622 1.30666 38.3806 0.531252 40.302L1.47126 40.302C2.24362 38.3984 2.92923 36.396 2.24209 34.6259C2.11031 34.2863 1.92613 33.9555 1.7478 33.6352C1.44735 33.0959 1.13622 32.5375 1.05558 31.9079C0.90904 30.7646 1.53588 29.7625 2.14237 28.7938C2.32122 28.5083 2.50133 28.2193 2.66364 27.9247L2.66364 23.9126C2.51583 23.6182 2.3525 23.3234 2.18562 23.0242C1.90298 22.5164 1.61093 21.9914 1.39724 21.4536C0.824835 20.0114 0.811606 18.3519 1.36085 16.9008C1.59821 16.273 1.93885 15.6792 2.26779 15.105C2.40415 14.8674 2.53745 14.6331 2.66364 14.399L2.66364 8.62391C2.54356 8.34203 2.41713 8.05888 2.28916 7.77268C1.99024 7.10336 1.68114 6.41139 1.45422 5.7184C0.853837 3.88316 0.84544 1.86781 1.35882 0L0.409402 0C-0.109573 1.84058 -0.108556 3.83203 0.484449 5.64386C0.707305 6.3254 1.01385 7.01152 1.31048 7.67474C2.00729 9.23396 2.72775 10.8466 2.43061 12.5368C2.2594 13.5127 1.76052 14.383 1.27818 15.2246L1.27818 15.2246Z" transform="translate(2.008671 0.00025231933)" id="Shape" fill="#A1C3FC" fill-rule="evenodd" stroke="none" />
            <path d="M0.713578 5.70976C0.891914 6.02979 1.07635 6.36102 1.20788 6.70039C1.89043 8.45855 1.18167 10.4828 0.414658 12.3766L0.69526 12.3766C1.09212 11.3931 1.45922 10.3846 1.62967 9.38965L1.62967 7.28831C1.5821 7.06087 1.51748 6.83598 1.43124 6.61389C1.29361 6.25926 1.1051 5.92065 0.922697 5.59349C0.61996 5.0501 0.334016 4.53621 0.258969 3.95262C0.123372 2.89431 0.700353 1.97237 1.31142 0.996232C1.41827 0.825276 1.52537 0.652791 1.62968 0.479036L1.62968 0C1.46711 0.294849 1.287 0.583593 1.10841 0.869029C0.501921 1.83804 -0.125174 2.83986 0.0216141 3.98314C0.102511 4.61228 0.413132 5.17043 0.713578 5.70976L0.713578 5.70976Z" transform="translate(3.0431411 27.925732)" id="Shape" fill="#FFFFFF" fill-rule="evenodd" stroke="none" />
            <path d="M0.934412 2.98691L0.934412 0C0.763708 0.995213 0.396863 2.0034 0 2.98691L0.934412 2.98691L0.934412 2.98691Z" transform="translate(3.7386572 37.315643)" id="Shape" fill="#A1C3FC" fill-rule="evenodd" stroke="none" />
          </g>
          <path d="M1.34603 2.75998L0 1.34705L1.41192 0L2.75795 1.41294L1.34603 2.75998Z" transform="translate(57.650726 27.044256)" id="Polygon" fill="#1D72D8" fill-rule="evenodd" stroke="none" />
          <path d="M0 0L1.95076 0L1.95076 1.95203L0 1.95203L0 0Z" transform="matrix(0.97319996 0.23 -0.23 0.9732 49.03822 42.116684)" id="Rectangle" fill="#1D72D8" fill-rule="evenodd" stroke="none" />
          <path d="M1.90735e-06 0L1.56276 0L1.56276 1.56174L0 1.56174L1.90735e-06 0Z" transform="matrix(-0.2057 0.9786001 -0.9786 -0.20570001 58.06761 29.732592)" id="Rectangle" fill="#E94A47" fill-rule="evenodd" stroke="none" />
        </g>
      </g>
      <g id="Group" transform="matrix(4.868733 0.9478596 -0.9471234 4.872517 117.89719 50.372375)">
        <g id="Group">
          <path d="M9.82162 17.1976C14.4525 15.4201 16.3411 12.5523 19.5924 11.611C19.5924 11.611 16.9456 4.06194 16.4373 0.387132C14.7941 -0.365892 12.3638 0.154611 10.5899 0.484059C7.7536 1.01118 4.81096 0.944522 2.0006 0.29046C1.28472 4.12579 0 12.4742 0 12.4742C3.14158 12.9715 5.9349 15.6463 9.82162 17.1976L9.82162 17.1976Z" transform="translate(12.02091 3.9175713)" id="Shape" fill="#151A4F" fill-rule="evenodd" stroke="none" />
          <path d="M0 8.369L22.2478 12.8014L41.9305 4.74253L17.8904 0L0 8.369Z" id="Polygon" fill="#23286B" fill-rule="evenodd" stroke="none" />
          <path d="M0 1.22748L3.26294 1.87773L6.14987 0.695784L2.62388 0L0 1.22748Z" transform="translate(18.17001 4.6249933)" id="Polygon" fill="#428DFC" fill-rule="evenodd" stroke="none" />
          <g id="Group" transform="translate(20.139341 3.926551)">
            <path d="M26.9005 7.16656C25.0576 7.16656 23.2015 6.59849 21.7176 5.5295C21.1228 5.10109 20.5802 4.59483 20.0551 4.10562C19.645 3.72326 19.2209 3.32817 18.777 2.97481C16.4714 1.14008 13.244 0.162929 9.67328 0.220169C6.36252 0.274866 3.13571 1.15127 0.141928 2.09052C0.0839253 2.10858 0.0231222 2.07653 0.00505997 2.01929C-0.0130022 1.96179 0.0187978 1.90074 0.0765459 1.88267C3.0861 0.938595 6.33122 0.0573534 9.66997 0.0024031C13.2827 -0.0556 16.568 0.938087 18.9131 2.80437C19.3636 3.16307 19.791 3.56121 20.2042 3.94637C20.7242 4.431 21.2622 4.93242 21.8458 5.35269C23.9095 6.83915 26.7127 7.33268 29.1613 6.64123C29.8653 6.44254 30.2779 6.1688 30.4603 5.77932C30.5743 5.53586 30.5277 5.18962 30.3489 4.95557C30.2743 4.85814 30.1146 4.70117 29.8757 4.74137C29.8174 4.75103 29.7599 4.7116 29.7498 4.65258C29.7398 4.59305 29.7798 4.53683 29.8391 4.52691C30.0962 4.48188 30.3448 4.59127 30.5229 4.82405C30.7516 5.12373 30.8073 5.55443 30.6582 5.87243C30.3807 6.46442 29.7047 6.71475 29.2206 6.85161C28.4701 7.06328 27.6863 7.16656 26.9005 7.16656L26.9005 7.16656Z" id="Shape" fill="#428DFC" fill-rule="evenodd" stroke="none" />
          </g>
          <g id="Group" transform="translate(39.54984 6.9700785)">
            <path d="M7.06692 2.71696C5.93738 2.71696 4.76409 2.502 3.8162 2.29873C2.48009 2.01253 1.24574 1.42716 0.042937 0.509026C-0.00514343 0.472647 -0.0140484 0.404213 0.0223322 0.356132C0.0592213 0.307796 0.127654 0.299146 0.175482 0.33578C1.35208 1.23381 2.55794 1.80621 3.86174 2.08554C5.02409 2.33435 6.52785 2.60147 7.85454 2.45875C8.97187 2.33816 9.43437 1.62152 9.49085 1.04428C9.53129 0.633682 9.37051 0.299654 9.09144 0.212904C9.03369 0.195096 9.00189 0.133786 9.0197 0.0765459C9.03776 0.0187973 9.09831 -0.0130027 9.15656 0.00505949C9.53714 0.12361 9.75898 0.549984 9.7081 1.06616C9.63865 1.77645 9.04564 2.54982 7.87769 2.67575C7.61286 2.7045 7.34116 2.71696 7.06692 2.71696L7.06692 2.71696Z" transform="translate(3.881835E-06 1.9409179E-06)" id="Shape" fill="#428DFC" fill-rule="evenodd" stroke="none" />
          </g>
          <g id="Group" transform="translate(39.4975 7.388749)">
            <path d="M7.27648 5.43606C5.83123 5.43606 4.38268 5.0191 3.17046 4.2353C1.50796 3.1602 0.442533 1.7811 0.00369163 0.136912C-0.011828 0.0786547 0.023027 0.0191253 0.0810294 0.00360671C0.140049 -0.0116572 0.199072 0.0229412 0.214588 0.0806898C0.638927 1.6712 1.67332 3.00756 3.28876 4.05238C4.78565 5.01987 6.65371 5.41164 8.41365 5.12748C8.47165 5.11832 8.5294 5.15801 8.53881 5.21754C8.54873 5.27706 8.50803 5.33278 8.4485 5.3427C8.06181 5.40528 7.66902 5.43606 7.27648 5.43606L7.27648 5.43606Z" transform="translate(3.8818357E-06 -9.704589E-07)" id="Shape" fill="#428DFC" fill-rule="evenodd" stroke="none" />
          </g>
        </g>
      </g>
      <g id="Group" transform="matrix(0.40504026 -0.21804218 0.21804218 0.40504026 318.46945 176.21027)">
        <g id="Group">
          <path d="M25.1002 25.0663C16.6918 25.5657 8.42532 25.5637 0.299529 25.0663C-0.0718957 16.2717 -0.126846 7.92686 0.299529 0.265594C8.56677 -0.0885313 16.8335 -0.0885313 25.1002 0.265594C25.5706 8.27412 25.5373 16.5592 25.1002 25.0663L25.1002 25.0663Z" transform="translate(3.1054708E-05 0)" id="Shape" fill="#E94A47" fill-rule="evenodd" stroke="none" />
        </g>
      </g>
      <g id="Group" transform="matrix(0.3523471 -0.14230783 0.14230783 0.3523471 51.71106 276.4052)">
        <g id="Group" transform="translate(-1.5527356E-05 0)">
          <path d="M25.1002 25.0663C16.6918 25.5657 8.42533 25.5637 0.299529 25.0663C-0.0718957 16.2717 -0.126846 7.92686 0.299529 0.265594C8.56677 -0.0885313 16.8335 -0.0885313 25.1002 0.265594C25.5706 8.27412 25.5373 16.5592 25.1002 25.0663L25.1002 25.0663Z" id="Shape" fill="#E94A47" fill-rule="evenodd" stroke="none" />
        </g>
      </g>
      <g id="Group" transform="matrix(0.22550595 -0.10792156 0.10792156 0.22550595 61.52115 191.46677)">
        <g id="Group">
          <path d="M25.1002 25.0663C16.6918 25.5657 8.42532 25.5637 0.299528 25.0663C-0.0718956 16.2717 -0.126846 7.92686 0.299528 0.265594C8.56676 -0.0885313 16.8335 -0.0885313 25.1002 0.265594C25.5706 8.27412 25.5373 16.5592 25.1002 25.0663L25.1002 25.0663Z" transform="translate(-1.552734E-05 0)" id="Shape" fill="#23286B" fill-rule="evenodd" stroke="none" />
        </g>
      </g>
      <g id="Group" transform="matrix(1.7854245 0 0 1.7854245 334.53598 223.87201)">
        <g id="Group">
          <path d="M0 1.56736C0 0.70173 0.701733 0 1.56736 0C2.433 0 3.13473 0.70173 3.13473 1.56736C3.13473 2.43298 2.433 3.13471 1.56736 3.13471C0.701733 3.13471 0 2.43298 0 1.56736Z" id="Circle" fill="#D9E021" fill-rule="evenodd" stroke="none" />
        </g>
      </g>
    </g>
  </g>
</svg>